<svg id="visual" viewBox="0 0 900 600" width="900" height="600" xmlns="http://www.w3.org/2000/svg" xmlns:xlink="http://www.w3.org/1999/xlink" version="1.1"><path d="M0 208L25 205.8C50 203.7 100 199.3 150 213C200 226.7 250 258.3 300 268C350 277.7 400 265.3 450 254.8C500 244.3 550 235.7 600 236C650 236.3 700 245.7 750 234.3C800 223 850 191 875 175L900 159L900 601L875 601C850 601 800 601 750 601C700 601 650 601 600 601C550 601 500 601 450 601C400 601 350 601 300 601C250 601 200 601 150 601C100 601 50 601 25 601L0 601Z" fill="#876fac"></path><path d="M0 326L25 334.3C50 342.7 100 359.3 150 357.5C200 355.7 250 335.3 300 317.8C350 300.3 400 285.7 450 294.2C500 302.7 550 334.3 600 343.7C650 353 700 340 750 341.2C800 342.3 850 357.7 875 365.3L900 373L900 601L875 601C850 601 800 601 750 601C700 601 650 601 600 601C550 601 500 601 450 601C400 601 350 601 300 601C250 601 200 601 150 601C100 601 50 601 25 601L0 601Z" fill="#9772ad"></path><path d="M0 382L25 387.7C50 393.3 100 404.7 150 407C200 409.3 250 402.7 300 407.2C350 411.7 400 427.3 450 433.5C500 439.7 550 436.3 600 431.2C650 426 700 419 750 417.8C800 416.7 850 421.3 875 423.7L900 426L900 601L875 601C850 601 800 601 750 601C700 601 650 601 600 601C550 601 500 601 450 601C400 601 350 601 300 601C250 601 200 601 150 601C100 601 50 601 25 601L0 601Z" fill="#a676ad"></path><path d="M0 477L25 478.3C50 479.7 100 482.3 150 487.8C200 493.3 250 501.7 300 496.5C350 491.3 400 472.7 450 472.2C500 471.7 550 489.3 600 489.7C650 490 700 473 750 468.8C800 464.7 850 473.3 875 477.7L900 482L900 601L875 601C850 601 800 601 750 601C700 601 650 601 600 601C550 601 500 601 450 601C400 601 350 601 300 601C250 601 200 601 150 601C100 601 50 601 25 601L0 601Z" fill="#b47aad"></path></svg>