<svg id="visual" viewBox="0 0 900 600" width="900" height="600" xmlns="http://www.w3.org/2000/svg" xmlns:xlink="http://www.w3.org/1999/xlink" version="1.1"><path d="M0 353L16.7 360.3C33.3 367.7 66.7 382.3 100 381C133.3 379.7 166.7 362.3 200 372.8C233.3 383.3 266.7 421.7 300 433.2C333.3 444.7 366.7 429.3 400 411.5C433.3 393.7 466.7 373.3 500 364.5C533.3 355.7 566.7 358.3 600 371.8C633.3 385.3 666.7 409.7 700 410.5C733.3 411.3 766.7 388.7 800 386.3C833.3 384 866.7 402 883.3 411L900 420L900 601L883.3 601C866.7 601 833.3 601 800 601C766.7 601 733.3 601 700 601C666.7 601 633.3 601 600 601C566.7 601 533.3 601 500 601C466.7 601 433.3 601 400 601C366.7 601 333.3 601 300 601C266.7 601 233.3 601 200 601C166.7 601 133.3 601 100 601C66.7 601 33.3 601 16.7 601L0 601Z" fill="#a677ad"></path><path d="M0 443L16.7 432.7C33.3 422.3 66.7 401.7 100 394.3C133.3 387 166.7 393 200 402.8C233.3 412.7 266.7 426.3 300 436.2C333.3 446 366.7 452 400 459.3C433.3 466.7 466.7 475.3 500 470.2C533.3 465 566.7 446 600 443.2C633.3 440.3 666.7 453.7 700 450C733.3 446.3 766.7 425.7 800 415.5C833.3 405.3 866.7 405.7 883.3 405.8L900 406L900 601L883.3 601C866.7 601 833.3 601 800 601C766.7 601 733.3 601 700 601C666.7 601 633.3 601 600 601C566.7 601 533.3 601 500 601C466.7 601 433.3 601 400 601C366.7 601 333.3 601 300 601C266.7 601 233.3 601 200 601C166.7 601 133.3 601 100 601C66.7 601 33.3 601 16.7 601L0 601Z" fill="#c783ac"></path><path d="M0 454L16.7 452.5C33.3 451 66.7 448 100 457.5C133.3 467 166.7 489 200 488.8C233.3 488.7 266.7 466.3 300 453C333.3 439.7 366.7 435.3 400 444.2C433.3 453 466.7 475 500 484.8C533.3 494.7 566.7 492.3 600 490.7C633.3 489 666.7 488 700 481.8C733.3 475.7 766.7 464.3 800 459.5C833.3 454.7 866.7 456.3 883.3 457.2L900 458L900 601L883.3 601C866.7 601 833.3 601 800 601C766.7 601 733.3 601 700 601C666.7 601 633.3 601 600 601C566.7 601 533.3 601 500 601C466.7 601 433.3 601 400 601C366.7 601 333.3 601 300 601C266.7 601 233.3 601 200 601C166.7 601 133.3 601 100 601C66.7 601 33.3 601 16.7 601L0 601Z" fill="#d78baa"></path><path d="M0 519L16.7 514.3C33.3 509.7 66.7 500.3 100 500.8C133.3 501.3 166.7 511.7 200 516.5C233.3 521.3 266.7 520.7 300 516.2C333.3 511.7 366.7 503.3 400 507C433.3 510.7 466.7 526.3 500 523C533.3 519.7 566.7 497.3 600 498.2C633.3 499 666.7 523 700 522C733.3 521 766.7 495 800 486.3C833.3 477.7 866.7 486.3 883.3 490.7L900 495L900 601L883.3 601C866.7 601 833.3 601 800 601C766.7 601 733.3 601 700 601C666.7 601 633.3 601 600 601C566.7 601 533.3 601 500 601C466.7 601 433.3 601 400 601C366.7 601 333.3 601 300 601C266.7 601 233.3 601 200 601C166.7 601 133.3 601 100 601C66.7 601 33.3 601 16.7 601L0 601Z" fill="#c783ac"></path><path d="M0 523L16.7 529.2C33.3 535.3 66.7 547.7 100 556.2C133.3 564.7 166.7 569.3 200 569.3C233.3 569.3 266.7 564.7 300 558C333.3 551.3 366.7 542.7 400 540C433.3 537.3 466.7 540.7 500 546.5C533.3 552.3 566.7 560.7 600 556.2C633.3 551.7 666.7 534.3 700 532.5C733.3 530.7 766.7 544.3 800 548.8C833.3 553.3 866.7 548.7 883.3 546.3L900 544L900 601L883.3 601C866.7 601 833.3 601 800 601C766.7 601 733.3 601 700 601C666.7 601 633.3 601 600 601C566.7 601 533.3 601 500 601C466.7 601 433.3 601 400 601C366.7 601 333.3 601 300 601C266.7 601 233.3 601 200 601C166.7 601 133.3 601 100 601C66.7 601 33.3 601 16.7 601L0 601Z" fill="#a677ad"></path></svg>