<?xml version="1.0" ?><svg data-name="Layer 1" id="Layer_1" viewBox="0 0 512 512" xmlns="http://www.w3.org/2000/svg"><path d="M369.48,262.7a26.9,26.9,0,0,0-33-12.43,27,27,0,0,0-39.61-25.66l9.39-116.47a26.63,26.63,0,0,0-53-5L241.94,197l-11.3-93.8a26.63,26.63,0,0,0-53,5L188,241.05h-4.11a25.38,25.38,0,0,0-24.16,18l-19.43,65.11a25.14,25.14,0,0,0,4.86,23.39l52.66,62.8v16.23a6,6,0,0,0,12,0V408.17a6,6,0,0,0-1.4-3.85l-54.07-64.47a13.2,13.2,0,0,1-2.54-12.27l19.42-65.11A13.32,13.32,0,0,1,183.87,253h84.9c-.67,7.33-4.9,20.53-25.93,25.69-26.66,6.55-40.83,7.47-41,7.49a6,6,0,0,0-1.41,11.7c.42.12,42,13.56,53.56,61.83A6,6,0,1,0,265.67,357c-8-33.29-28.23-51.91-43.4-61.55,6.32-1.15,14.14-2.77,23.43-5.06,14.69-3.6,23.63-10.79,28.82-18.65l-9.25,31.23a27,27,0,0,0,18.22,33.54,26.59,26.59,0,0,0,23.59-4.13,26.91,26.91,0,0,0,17.23,15.51A26.62,26.62,0,0,0,332,349a27.07,27.07,0,0,0,17.22-6.23,176.32,176.32,0,0,1-15.74,59.46,6,6,0,0,0-.56,2.53v21.86a6,6,0,1,0,12,0V406a188.21,188.21,0,0,0,16.91-77.71V316.47l9.87-33.22A26.78,26.78,0,0,0,369.48,262.7ZM189.54,107.2a14.66,14.66,0,0,1,29.2-2.65l16.45,136.5H200Zm91,138.92a6,6,0,0,0-5.92-5.07H248.69l16.46-136.57a14.65,14.65,0,0,1,29.18,2.71l-10.8,134.12-2.65,8.95A30.35,30.35,0,0,0,280.55,246.12Zm17.76,77.66a15,15,0,0,1-21.55-17.45l18.43-62.19A15,15,0,0,1,324,252.67l-18.44,62.19A14.9,14.9,0,0,1,298.31,323.78Zm29.39,12.58a15,15,0,0,1-10.12-18.64l13.8-46.41a15,15,0,1,1,28.77,8.53l-13.79,46.4A15,15,0,0,1,327.7,336.36Z"/></svg>