<?xml version="1.0" ?><svg data-name="Layer 1" id="Layer_1" viewBox="0 0 512 512" xmlns="http://www.w3.org/2000/svg"><path d="M348.21,120.06a29,29,0,0,0-18.88,7,29,29,0,0,0-50.49-7.77,29,29,0,0,0-50.48,7.78,29.08,29.08,0,0,0-48,22.11v43.72a40.14,40.14,0,0,0-36.21,32.18l-8.7,43.55a40.26,40.26,0,0,0,10,35.32l59.79,64v30.26a6,6,0,0,0,12,0V365.61a5.93,5.93,0,0,0-1.62-4.09l-61.4-65.75a28.32,28.32,0,0,1-7-24.8l8.71-43.55c2.7-13.48,14.68-23.3,28.36-22.68l88,2.13a25.55,25.55,0,0,1-5.65,13.66c-6.56,8.24-22.11,18.35-58.87,19.73A6,6,0,0,0,206,251.92c.43.15,44.46,15.34,63.79,49.19a6,6,0,0,0,10.42-5.94c-12.56-21.95-33.55-36.58-49.36-45.13,17.92-3,31.52-8.78,40.66-17.31a29.49,29.49,0,0,0,7.31-6.78,29,29,0,0,0,46.25,0,29,29,0,0,0,40.26,5.86v75.86A86.81,86.81,0,0,1,350.7,356a6,6,0,0,0-1,3.32v38.9a6,6,0,0,0,12,0V361.11a98.73,98.73,0,0,0,15.65-53.44V149.17A29.15,29.15,0,0,0,348.21,120.06ZM209.47,132a17.15,17.15,0,0,1,17.14,17.13v44.61L192.34,193V149.17A17.15,17.15,0,0,1,209.47,132Zm29.12,62V136.9a17.14,17.14,0,1,1,34.27,0v58Zm80.51-44.9v59.16a17.13,17.13,0,1,1-34.26,0V136.9a17.13,17.13,0,1,1,34.26,0Zm29.11,76.29a17.15,17.15,0,0,1-17.13-17.13V149.17a17.14,17.14,0,0,1,34.27,0v59.16A17.15,17.15,0,0,1,348.21,225.46Z"/></svg>