<?xml version="1.0" ?>
<svg viewBox="0 0 512 512" xmlns="http://www.w3.org/2000/svg"><g id="Flat">
<polygon points="72 344 56 296 88 296 136 328 72 344" style="fill:#37a2c7"/>
<path d="M440,328v32L304,424H69.25a31.99526,31.99526,0,0,1-22.62-9.37L29.74,397.74a23.98683,23.98683,0,0,1,4.62-37.55L48.01,352,80.4,332.56A32.01447,32.01447,0,0,1,96.86,328Z" style="fill:#8ed0eb"/>
<path d="M372,392l-68,32H69.25a31.99526,31.99526,0,0,1-22.62-9.37L29.74,397.74A23.8438,23.8438,0,0,1,25.49,392Z" style="fill:#c8d8e4"/><path d="M96,352v24H23.18a23.88057,23.88057,0,0,1,11.18-15.81L48.01,352Z" style="fill:#37a2c7"/><path d="M192,424h28.223A151.554,151.554,0,0,1,288,440l0,0v32l0,0a151.554,151.554,0,0,1-67.777,16H192Z" style="fill:#8ed0eb"/><circle cx="192" cy="456" r="32" style="fill:#37a2c7"/><polygon points="160 408 328 464 392 464 272 408 160 408" style="fill:#37a2c7"/><polygon points="352 360 440 392 488 384 440 360 352 360" style="fill:#37a2c7"/><polygon points="352 328 392 296 424 240 456 240 440 328 352 328" style="fill:#37a2c7"/><circle cx="144" cy="368" r="16" style="fill:#37a2c7"/><circle cx="200" cy="368" r="16" style="fill:#37a2c7"/><circle cx="256" cy="368" r="16" style="fill:#37a2c7"/><circle cx="312" cy="368" r="16" style="fill:#37a2c7"/></g></svg>