<?xml version="1.0" ?>
<svg viewBox="0 0 64 64" xmlns="http://www.w3.org/2000/svg"><title/>
<g data-name="Black Hole" id="Black_Hole">
<circle cx="32" cy="32.0004" r="20.8208" style="fill:#795a96"/>
<circle cx="32" cy="32.0004" r="14.2139" style="fill:#949bdd"/>
<path d="M32.124,28.29a.984.984,0,0,1-.1133-.0063,1,1,0,0,1-.8818-1.1055c.7114-6.3276,3.9785-16.9429,17.86-16.9429a1,1,0,0,1,0,2c-11.7095,0-15.0948,8.2476-15.8731,15.1665A1,1,0,0,1,32.124,28.29Z" style="fill:#c6cbef"/>
<path d="M54.6523,12.2357H52.7646a1,1,0,0,1,0-2h1.8877a1,1,0,0,1,0,2Z" style="fill:#c6cbef"/><path d="M27.9814,30.54a.995.995,0,0,1-.5927-.1954c-5.1241-3.78-12.6836-11.9174-5.7432-23.9394a1,1,0,1,1,1.7324,1c-5.8545,10.1406-.4048,17.1963,5.1983,21.33a1,1,0,0,1-.5948,1.8047Z" style="fill:#c6cbef"/><path d="M24.3984,4.6352a1,1,0,0,1-.8652-1.5L24.4771,1.5a1,1,0,0,1,1.7324,1l-.9439,1.6348A1,1,0,0,1,24.3984,4.6352Z" style="fill:#c6cbef"/><path d="M19.04,37.27c-4.94,0-10.3252-2.0718-14.3837-9.1006a1,1,0,0,1,1.7324-1c5.8545,10.1416,14.69,8.95,21.0713,6.1631a1,1,0,0,1,.8,1.833A23.555,23.555,0,0,1,19.04,37.27Z" style="fill:#c6cbef"/><path d="M3.6357,25.4a1,1,0,0,1-.8671-.5L1.8247,23.265a1,1,0,0,1,1.7324-1L4.501,23.9a1,1,0,0,1-.8653,1.5Z" style="fill:#c6cbef"/><path d="M15.0107,53.765a1,1,0,0,1,0-2c11.7095,0,15.0948-8.2475,15.8731-15.1665a1,1,0,0,1,1.9873.2237C32.16,43.15,28.8926,53.765,15.0107,53.765Z" style="fill:#c6cbef"/><path d="M11.2354,53.765H9.3477a1,1,0,0,1,0-2h1.8877a1,1,0,0,1,0,2Z" style="fill:#c6cbef"/><path d="M41.4873,58.0961a1,1,0,0,1-.8652-1.5c5.8545-10.1406.4048-17.1963-5.1983-21.33a1,1,0,0,1,1.1875-1.6094c5.1241,3.78,12.6836,11.9175,5.7432,23.94A1,1,0,0,1,41.4873,58.0961Z" style="fill:#c6cbef"/><path d="M38.6558,63a1,1,0,0,1-.8653-1.5l.9439-1.6348a1,1,0,1,1,1.7324,1L39.5229,62.5A1,1,0,0,1,38.6558,63Z" style="fill:#c6cbef"/><path d="M58.4785,37.3314a1,1,0,0,1-.8672-.5c-5.855-10.1406-14.69-8.95-21.0713-6.163a1,1,0,0,1-.8-1.833c5.835-2.5469,16.6617-5.0264,23.6036,6.996a1,1,0,0,1-.8653,1.5Z" style="fill:#c6cbef"/><path d="M61.31,42.2357a1,1,0,0,1-.8672-.5L59.499,40.101a1,1,0,1,1,1.7324-1l.9439,1.6347a1,1,0,0,1-.8652,1.5Z" style="fill:#c6cbef"/><circle cx="32" cy="32.0004" r="5.7192" style="fill:#795a96"/><g style="opacity:0.1"><path d="M52.7646,12.2357h1.8877a1,1,0,0,0,0-2H52.7646a1,1,0,0,0,0,2Z"/><path d="M11.2354,51.765H9.3477a1,1,0,0,0,0,2h1.8877a1,1,0,0,0,0-2Z"/><path d="M40.1006,59.4994a.9984.9984,0,0,0-1.3662.3662L37.7905,61.5a1,1,0,0,0,1.7324,1l.9439-1.6348A1,1,0,0,0,40.1006,59.4994Z"/><path d="M59.34,35.83a18.6473,18.6473,0,0,0-6.79-7.14v-.01A20.7985,20.7985,0,0,0,41.74,13.61a17.7515,17.7515,0,0,1,7.25-1.37,1,1,0,0,0,0-2,20.0784,20.0784,0,0,0-7.67,1.37q.075.915.09,1.83c0,.11.01.22,0,.33.01.16.01.31.01.47a34.2958,34.2958,0,0,1-.63,6.61,34.6729,34.6729,0,0,1-2.04,6.87q-.54,1.29-1.17,2.52a.6057.6057,0,0,0-.12.05l.03.12a33.4945,33.4945,0,0,1-1.83,3.12.9845.9845,0,0,0-.45.34.9992.9992,0,0,0-.2.62,30.4973,30.4973,0,0,1-2.19,2.79l-.01.01v.01c-.11.13-.23.27-.35.4-.69.76-1.41,1.5-2.15,2.2a35.376,35.376,0,0,1-5.6,4.29A34.4964,34.4964,0,0,1,18,47.4a20.1628,20.1628,0,0,0,4.26,2.99,17.7515,17.7515,0,0,1-7.25,1.37,1,1,0,1,0,0,2,18.6679,18.6679,0,0,0,9.58-2.31,20.751,20.751,0,0,0,18.47-1.82,17.8074,17.8074,0,0,1-2.44,6.97.9986.9986,0,0,0,.37,1.36,1.022,1.022,0,0,0,.5.14.9906.9906,0,0,0,.86-.5,18.6987,18.6987,0,0,0,2.79-9.46A20.8067,20.8067,0,0,0,52.82,32c0-.26,0-.52-.02-.77a17.8916,17.8916,0,0,1,4.81,5.6.9991.9991,0,1,0,1.73-1Z"/><path d="M62.1753,40.7357l-.9439-1.6347a1,1,0,1,0-1.7324,1l.9439,1.6347a1,1,0,1,0,1.7324-1Z"/></g></g></svg>