<?xml version="1.0" ?><svg viewBox="0 0 64 64" xmlns="http://www.w3.org/2000/svg"><defs><style>.cls-1{fill:#f23d6c;}.cls-2{fill:#fe4a13;}.cls-3{fill:#fe8657;}</style></defs><g data-name="Comet" id="Comet-2"><path class="cls-1" d="M39.6,6.93a1.68,1.68,0,0,1,1.6.84,1.66,1.66,0,0,1-.08,1.8c-3.34,5-10.31,15-13.66,17a9.39,9.39,0,1,1-9.38-16.26C21.42,8.35,33.6,7.33,39.6,6.93Z"/><path class="cls-2" d="M21.19,12.54A6.08,6.08,0,1,1,16.89,20,6.08,6.08,0,0,1,21.19,12.54Z"/><path class="cls-3" d="M28.66,16.92a.19.19,0,0,0,0-.08,6.08,6.08,0,0,0-5.85-4.51,4,4,0,0,0-.08,2.31.25.25,0,0,0,0,.07,3.93,3.93,0,0,0,4.8,2.71A3.68,3.68,0,0,0,28.66,16.92Z"/><path class="cls-1" d="M30.22,32a1.68,1.68,0,0,1,1.52,2.64c-3.34,5-10.31,15-13.66,17A9.39,9.39,0,0,1,8.7,35.34C12,33.41,24.22,32.39,30.22,32Z"/><path class="cls-2" d="M11.82,37.6A6.08,6.08,0,1,1,7.51,45,6.07,6.07,0,0,1,11.82,37.6Z"/><path class="cls-3" d="M19.28,42l0-.09a6.08,6.08,0,0,0-5.85-4.5,3.87,3.87,0,0,0-.08,2.31.14.14,0,0,0,0,.06,3.93,3.93,0,0,0,4.8,2.72A4.24,4.24,0,0,0,19.28,42Z"/><path class="cls-1" d="M56.61,36.4a1.66,1.66,0,0,1,1.6.83A1.69,1.69,0,0,1,58.14,39c-3.35,5-10.32,15-13.67,17a9.39,9.39,0,1,1-9.38-16.26C38.43,37.81,50.61,36.79,56.61,36.4Z"/><path class="cls-2" d="M38.2,42a6.08,6.08,0,1,1-4.3,7.45A6.08,6.08,0,0,1,38.2,42Z"/><path class="cls-3" d="M45.67,46.38l0-.08a6.08,6.08,0,0,0-5.85-4.51,4,4,0,0,0-.08,2.31.64.64,0,0,1,0,.07,3.94,3.94,0,0,0,4.8,2.72A3.85,3.85,0,0,0,45.67,46.38Z"/><path class="cls-3" d="M13.78,44.58a1.17,1.17,0,0,0-1.45-.79,1.16,1.16,0,1,0,1.45.79Z"/><path class="cls-3" d="M40.17,49a1.16,1.16,0,1,0-.79,1.45A1.16,1.16,0,0,0,40.17,49Z"/><path class="cls-3" d="M23.16,19.52A1.16,1.16,0,1,0,22.37,21,1.17,1.17,0,0,0,23.16,19.52Z"/><g id="path1566-3-7"><path class="cls-3" d="M13.39,50.55a7.08,7.08,0,1,1,7.08-7.08A7.09,7.09,0,0,1,13.39,50.55Zm0-12.16a5.08,5.08,0,1,0,5.08,5.08A5.09,5.09,0,0,0,13.39,38.39Z"/></g><g id="circle2645"><path class="cls-3" d="M39.78,55a7.09,7.09,0,1,1,7.08-7.09A7.1,7.1,0,0,1,39.78,55Zm0-12.17a5.09,5.09,0,1,0,5.08,5.08A5.09,5.09,0,0,0,39.78,42.79Z"/></g><g id="circle2653"><path class="cls-3" d="M22.77,25.49a7.08,7.08,0,1,1,7.08-7.08A7.08,7.08,0,0,1,22.77,25.49Zm0-12.16a5.08,5.08,0,1,0,5.08,5.08A5.09,5.09,0,0,0,22.77,13.33Z"/></g></g></svg>