<?xml version="1.0" ?><svg viewBox="0 0 64 64" xmlns="http://www.w3.org/2000/svg"><title/><g id="Meteor"><path d="M61.6826,22.0932a4.4971,4.4971,0,0,0-6.36,0l-8.9615,8.9609a1.658,1.658,0,0,1-2.3447-2.3447L60.0918,12.6342A5.299,5.299,0,0,0,52.5981,5.14L37.71,20.0287a1.8891,1.8891,0,0,1-2.6714-2.6718l7.9043-7.9043A5.0368,5.0368,0,0,0,35.82,2.33L6.8223,31.3266A18.3911,18.3911,0,0,0,31.0532,58.9731a.9929.9929,0,0,0,.33-.22l.6147-.6143a10.3773,10.3773,0,0,0,.8189-.8193L61.6826,28.4536a4.4972,4.4972,0,0,0,0-6.36Z" style="fill:#f7be16"/><path d="M30.6763,33.4428a.9964.9964,0,0,0,.707-.293l5.6328-5.6328a1,1,0,0,0-1.414-1.414l-5.6329,5.6328a1,1,0,0,0,.7071,1.707Z" style="fill:#eef5b2"/><path d="M37.5278,36.8559a1,1,0,0,0-1.414,0l-3.9949,3.9952a13.3193,13.3193,0,0,0-10.4942-9.2083l6.6858-6.6863a1,1,0,0,0-1.414-1.4141l-7.922,7.9225a13.3372,13.3372,0,1,0,13.6293,11.73l4.924-4.9245A1,1,0,0,0,37.5278,36.8559Z" style="fill:#eef5b2"/><path d="M13.2656,41.684a3.0484,3.0484,0,1,0,3.0484,3.0479A3.0517,3.0517,0,0,0,13.2656,41.684Z" style="fill:#febf63"/><path d="M23.5068,40.66A4.0728,4.0728,0,1,0,27.58,44.7319,4.077,4.077,0,0,0,23.5068,40.66Z" style="fill:#febf63"/><g style="opacity:0.1"><path d="M42.94,9.4485a5.0346,5.0346,0,0,0-7.12-7.12l-1.27,1.27a49.4783,49.4783,0,0,1,2.13,12.12Z"/><path d="M61.68,22.0884a4.5147,4.5147,0,0,0-6.36,0l-8.96,8.97a1.6659,1.6659,0,0,1-2.34,0,1.64,1.64,0,0,1-.49-1.18,1.6179,1.6179,0,0,1,.49-1.17l16.07-16.07a5.3,5.3,0,0,0-7.49-7.5l-14.89,14.89a1.8229,1.8229,0,0,1-1.02.52c-.09,1.79-.27,3.55-.53,5.28q-.255,1.59-.6,3.15a48.5959,48.5959,0,0,1-3.79,10.87,49.7259,49.7259,0,0,1-14.82,17.94,48.1768,48.1768,0,0,1-5.46,3.55,18.3276,18.3276,0,0,0,19.56-2.37.8.8,0,0,0,.33-.22l.62-.61a10.5737,10.5737,0,0,0,.82-.82l28.86-28.86a4.5025,4.5025,0,0,0,0-6.37Z"/></g></g></svg>