<?xml version="1.0" ?><svg viewBox="0 0 64 64" xmlns="http://www.w3.org/2000/svg"><defs><style>.cls-1{fill:#f23d6c;}.cls-2{fill:#fe8657;}.cls-3{fill:#6cc5ef;}.cls-4{fill:#e6e5e1;}.cls-5{fill:#cac7c1;}</style></defs><g id="Comet"><path class="cls-1" d="M53.54,35.11A24.77,24.77,0,1,1,28.77,10.34,24.77,24.77,0,0,1,53.54,35.11Z"/><path class="cls-2" d="M28.77,60.88A25.77,25.77,0,1,1,54.54,35.11,25.8,25.8,0,0,1,28.77,60.88Zm0-49.54A23.77,23.77,0,1,0,52.53,35.11,23.8,23.8,0,0,0,28.77,11.34Z"/><path class="cls-2" d="M22.82,11.07a24.7,24.7,0,0,0-12.26,7.25,7.42,7.42,0,1,0,12.26-7.25Zm16.67,1.72a11.82,11.82,0,0,0,13.83,19,24.69,24.69,0,0,0-2.56-8.11,4,4,0,1,1-4.35-6A24.37,24.37,0,0,0,39.49,12.79ZM29.79,27.1a3,3,0,1,0,3,3A3,3,0,0,0,29.79,27.1Zm-16.69.71a2.16,2.16,0,0,0-.37,4.28A7.53,7.53,0,1,1,5.92,44.68,24.61,24.61,0,0,0,10,51.25a11.84,11.84,0,0,0,3.5-23.41A2.43,2.43,0,0,0,13.1,27.81Zm-2,7.9a4.09,4.09,0,0,0-3.69,3.22,4,4,0,0,0,7.93,1.28,4,4,0,0,0-3.48-4.5,4.82,4.82,0,0,0-.76,0Zm29,3.21a11.84,11.84,0,0,0-7.75,20.7A24.59,24.59,0,0,0,38.18,58a7.53,7.53,0,1,1,9.54-7A24.94,24.94,0,0,0,51,46a11.89,11.89,0,0,0-8.54-6.85A12.86,12.86,0,0,0,40.1,38.92ZM39.91,47a3.94,3.94,0,1,0,.77,0A4,4,0,0,0,39.91,47Zm-18.6,7.39a4,4,0,0,0-3.8,2.76,24,24,0,0,0,7.66,2.44,3.93,3.93,0,0,0,.18-1.18,4,4,0,0,0-4-4Z"/><path class="cls-3" d="M56.32,5.41a1.93,1.93,0,0,1,2.46,2.47c-2.31,6.8-7.38,21-10.72,24.3a11.35,11.35,0,0,1-16-16C35.35,12.8,49.51,7.72,56.32,5.41Z"/><path class="cls-4" d="M41.94,17.05a7.35,7.35,0,1,1-9,5.2A7.37,7.37,0,0,1,41.94,17.05Z"/><path class="cls-5" d="M47.11,26.15l0-.09a7.35,7.35,0,0,0-3.4-8.26,4.7,4.7,0,0,0-1.48,2.37.24.24,0,0,0,0,.08A4.75,4.75,0,0,0,45.62,26,4.7,4.7,0,0,0,47.11,26.15Z"/><path class="cls-5" d="M39.78,22.65a1.41,1.41,0,1,1-1.7-1A1.41,1.41,0,0,1,39.78,22.65Z"/><g id="path1566-3-2"><path class="cls-5" d="M40,32.44a8.5,8.5,0,0,1-2.16-.29,8.34,8.34,0,0,1-5.9-10.23h0A8.36,8.36,0,0,1,42.13,16,8.36,8.36,0,0,1,40,32.44Zm0-14.71a6.35,6.35,0,0,0-6.12,4.71h0a6.35,6.35,0,1,0,11.63-1.53A6.36,6.36,0,0,0,40,17.73Zm-7.09,4.45h0Z"/></g></g></svg>