<?xml version="1.0" ?><svg viewBox="0 0 64 64" xmlns="http://www.w3.org/2000/svg"><defs><style>.cls-1,.cls-2{fill:#fcc667;}.cls-2{fill-rule:evenodd;}.cls-3{fill:#fe8657;}</style></defs><g id="Star"><path class="cls-1" d="M12.19,57.27a1,1,0,0,0,1.23,1.23l3.88-1.22a1,1,0,0,1,.86.14l3.32,2.36A1,1,0,0,0,23,59c0-1.4,0-3.21,0-4.07a1,1,0,0,1,.4-.78l3.26-2.42A1,1,0,0,0,26.46,50l-3.85-1.3a.92.92,0,0,1-.62-.62c-.28-.81-.85-2.52-1.3-3.85A1,1,0,0,0,19,44l-2.42,3.26a1,1,0,0,1-.78.4l-4.07,0a1,1,0,0,0-.79,1.55c.81,1.15,1.86,2.62,2.36,3.32a.94.94,0,0,1,.13.86C13.15,54.21,12.61,55.93,12.19,57.27Z"/><path class="cls-2" d="M32,57.3h-.7a1,1,0,0,0,0,2H32V60a1,1,0,0,0,2,0v-.7h.7a1,1,0,0,0,0-2H34v-.7a1,1,0,0,0-2,0Z"/><path class="cls-2" d="M49.85,53.71h-.7a1,1,0,0,0,0,2h.7v.7a1,1,0,0,0,2,0v-.7h.7a1,1,0,0,0,0-2h-.7V53a1,1,0,0,0-2,0Z"/><path class="cls-2" d="M26.94,51.54l2.1-2.1A1,1,0,0,0,27.62,48l-2.09,2.1a1,1,0,0,0,0,1.42A1,1,0,0,0,26.94,51.54Z"/><path class="cls-2" d="M22.17,49.93l9.42-9.41a1,1,0,1,0-1.42-1.42l-9.42,9.42a1,1,0,0,0,0,1.41A1,1,0,0,0,22.17,49.93Z"/><path class="cls-2" d="M32.8,45.67l1.42-1.42a1,1,0,0,0-1.41-1.41l-1.42,1.42a1,1,0,0,0,0,1.41A1,1,0,0,0,32.8,45.67Z"/><path class="cls-2" d="M20.57,45.16l3.73-3.73a1,1,0,0,0,0-1.41,1,1,0,0,0-1.42,0l-3.73,3.73a1,1,0,0,0,0,1.41A1,1,0,0,0,20.57,45.16Z"/><path class="cls-2" d="M48.07,41.53h-.7a1,1,0,0,0,0,2h.7v.69a1,1,0,0,0,2,0v-.69h.7a1,1,0,1,0,0-2h-.7v-.7a1,1,0,0,0-2,0Z"/><path class="cls-2" d="M37.08,41.4l6.76-6.76a1,1,0,0,0,0-1.42,1,1,0,0,0-1.41,0L35.67,40a1,1,0,0,0,1.41,1.42Z"/><path class="cls-2" d="M27.87,37.86,45.54,20.2a1,1,0,0,0-1.42-1.42L26.45,36.45a1,1,0,0,0,0,1.41A1,1,0,0,0,27.87,37.86Z"/><path class="cls-2" d="M35.58,36.53l3-3a1,1,0,1,0-1.41-1.41l-3,3a1,1,0,0,0,1.42,1.42Z"/><path class="cls-2" d="M22.24,29.76h-.7a1,1,0,0,0,0,2h.7v.7a1,1,0,0,0,2,0v-.7h.7a1,1,0,0,0,0-2h-.7v-.7a1,1,0,0,0-2,0Z"/><path class="cls-2" d="M41.27,30.83,46.06,26a1,1,0,1,0-1.41-1.42l-4.8,4.8a1,1,0,0,0,1.42,1.41Z"/><path class="cls-2" d="M47.74,30.74,54,24.49a1,1,0,1,0-1.41-1.41l-6.24,6.24a1,1,0,0,0,0,1.42A1,1,0,0,0,47.74,30.74Z"/><path class="cls-2" d="M14.49,19.82h-.7a1,1,0,0,0,0,2h.7v.7a1,1,0,0,0,2,0v-.7h.7a1,1,0,1,0,0-2h-.7v-.7a1,1,0,1,0-2,0Z"/><path class="cls-2" d="M29.62,17.63h-.7a1,1,0,0,0,0,2h.7v.7a1,1,0,0,0,2,0v-.7h.7a1,1,0,0,0,0-2h-.7v-.7a1,1,0,0,0-2,0Z"/><path class="cls-2" d="M26.49,4.7h-.71a1,1,0,0,0,0,2h.71v.7a1,1,0,1,0,2,0V6.7h.69a1,1,0,0,0,0-2h-.69V4a1,1,0,0,0-2,0Z"/><path class="cls-3" d="M22.05,61a2,2,0,0,1-1.15-.36l-3.32-2.36-3.86,1.22A2,2,0,0,1,11.23,57h0l1.22-3.88-2.36-3.3a2,2,0,0,1,1.6-3.13l4.07,0,2.41-3.26a2,2,0,0,1,1.9-.78,2,2,0,0,1,1.57,1.33l1.29,3.85,3.85,1.29a2,2,0,0,1,.55,3.47l-3.27,2.42L24,59A2,2,0,0,1,23,60.75,2.08,2.08,0,0,1,22.05,61Zm-4.46-4.72a2,2,0,0,1,1.15.37L22.06,59V54.91a2,2,0,0,1,.8-1.57l3.27-2.42-3.85-1.27A2,2,0,0,1,21,48.4l-1.29-3.85-2.4,3.27a2,2,0,0,1-1.57.8l-4.07,0L14.08,52a2,2,0,0,1,.28,1.74l-1.21,3.86L17,56.33A2,2,0,0,1,17.59,56.24Z"/></g></svg>