<?xml version="1.0" ?><svg viewBox="0 0 64 64" xmlns="http://www.w3.org/2000/svg"><defs><style>.cls-1,.cls-2{fill:#fcc667;}.cls-2{fill-rule:evenodd;}.cls-3{fill:#fe8657;}</style></defs><g data-name="Star" id="Star-2"><path class="cls-1" d="M30.93,58a1.15,1.15,0,0,0,1,.62A1.13,1.13,0,0,0,33,58l1.52-2.89a1.14,1.14,0,0,1,.82-.61l3.22-.54A1.14,1.14,0,0,0,39.15,52l-2.28-2.34a1.12,1.12,0,0,1-.32-1c.11-.74.31-2.07.48-3.23a1.18,1.18,0,0,0-.46-1.1,1.16,1.16,0,0,0-1.19-.1L32.46,45.7a1.17,1.17,0,0,1-1,0l-2.92-1.46a1.15,1.15,0,0,0-1.64,1.2c.17,1.16.37,2.49.47,3.23a1.11,1.11,0,0,1-.31,1L24.74,52a1.14,1.14,0,0,0,.63,1.93l3.22.54a1.16,1.16,0,0,1,.83.61Z"/><path class="cls-1" d="M13.19,43.41a1.15,1.15,0,0,0,1,.62,1.16,1.16,0,0,0,1-.62l1.51-2.89a1.14,1.14,0,0,1,.82-.61l3.22-.54a1.15,1.15,0,0,0,.63-1.94L19.12,35.1a1.14,1.14,0,0,1-.31-1c.11-.74.31-2.07.48-3.23a1.15,1.15,0,0,0-1.65-1.2l-2.92,1.46a1.14,1.14,0,0,1-1,0L10.77,29.7a1.15,1.15,0,0,0-1.65,1.2c.17,1.16.37,2.49.48,3.23a1.11,1.11,0,0,1-.31,1L7,37.43a1.16,1.16,0,0,0-.27,1.16,1.14,1.14,0,0,0,.9.78l3.22.54a1.16,1.16,0,0,1,.83.61Z"/><path class="cls-1" d="M47.5,33.11a1.16,1.16,0,0,0,2,0l1.51-2.9a1.15,1.15,0,0,1,.83-.6l3.22-.54a1.15,1.15,0,0,0,.63-1.94L53.44,24.8a1.17,1.17,0,0,1-.32-1l.48-3.23a1.12,1.12,0,0,0-.46-1.1A1.14,1.14,0,0,0,52,19.4L49,20.85a1.14,1.14,0,0,1-1,0L45.09,19.4a1.16,1.16,0,0,0-1.19.1,1.14,1.14,0,0,0-.46,1.1l.48,3.23a1.17,1.17,0,0,1-.32,1l-2.28,2.33A1.15,1.15,0,0,0,41,28.29a1.17,1.17,0,0,0,.91.78l3.21.54a1.13,1.13,0,0,1,.83.6C46.34,30.87,47,32.07,47.5,33.11Z"/><path class="cls-2" d="M52.21,51.23h-.46a1,1,0,0,0,0,2h.46v.46a1,1,0,0,0,2,0v-.46h.45a1,1,0,0,0,0-2h-.45v-.45a1,1,0,0,0-2,0Z"/><path class="cls-2" d="M16.3,50.88h-.45a1,1,0,0,0,0,2h.45v.45a1,1,0,0,0,2,0v-.45h.46a1,1,0,0,0,0-2H18.3v-.46a1,1,0,0,0-2,0Z"/><path class="cls-2" d="M33,47.57V36.17a1,1,0,0,0-2,0v11.4a1,1,0,0,0,2,0Z"/><path class="cls-2" d="M44.1,45.1h-.45a1,1,0,0,0,0,2h.45v.46a1,1,0,0,0,2,0V47.1h.46a1,1,0,0,0,0-2H46.1v-.45a1,1,0,0,0-2,0Z"/><path class="cls-2" d="M29.09,45.65V41.13a1,1,0,0,0-2,0v4.52a1,1,0,0,0,2,0Z"/><path class="cls-2" d="M36.8,45.65V43.11a1,1,0,0,0-2,0v2.54a1,1,0,0,0,2,0Z"/><path class="cls-2" d="M36.8,38.55V36.83a1,1,0,0,0-2,0v1.72a1,1,0,0,0,2,0Z"/><path class="cls-2" d="M53.85,35.08h-.46a1,1,0,0,0,0,2h.46v.45a1,1,0,0,0,2,0v-.45h.45a1,1,0,0,0,0-2h-.45v-.46a1,1,0,0,0-2,0Z"/><path class="cls-2" d="M15.21,33V21.62a1,1,0,1,0-2,0V33a1,1,0,0,0,2,0Z"/><path class="cls-2" d="M33,31.34V28.87a1,1,0,0,0-2,0v2.47a1,1,0,0,0,2,0Z"/><path class="cls-2" d="M19.06,31.11V28.57a1,1,0,0,0-2,0v2.54a1,1,0,0,0,2,0Z"/><path class="cls-2" d="M11.35,31.11V26.59a1,1,0,0,0-2,0v4.52a1,1,0,0,0,2,0Z"/><path class="cls-2" d="M19.06,24V22.29a1,1,0,0,0-2,0V24a1,1,0,0,0,2,0Z"/><path class="cls-2" d="M49.52,22.72V11.32a1,1,0,0,0-2,0v11.4a1,1,0,1,0,2,0Z"/><path class="cls-2" d="M45.66,20.8V16.29a1,1,0,0,0-2,0V20.8a1,1,0,0,0,2,0Z"/><path class="cls-2" d="M53.38,20.8V18.26a1,1,0,1,0-2,0V20.8a1,1,0,1,0,2,0Z"/><path class="cls-2" d="M27.2,15.27h-.45a1,1,0,0,0,0,2h.45v.46a1,1,0,0,0,2,0v-.46h.46a1,1,0,0,0,0-2H29.2v-.45a1,1,0,1,0-2,0Z"/><path class="cls-2" d="M15.21,16.8V14.33a1,1,0,1,0-2,0V16.8a1,1,0,0,0,2,0Z"/><path class="cls-2" d="M53.38,13.71V12a1,1,0,1,0-2,0v1.73a1,1,0,0,0,2,0Z"/><path class="cls-2" d="M4.46,10.61H4a1,1,0,0,0,0,2h.46v.45a1,1,0,1,0,2,0v-.45h.45a1,1,0,0,0,0-2H6.46v-.46a1,1,0,0,0-2,0Z"/><path class="cls-2" d="M57.54,6.94h-.45a1,1,0,0,0,0,2h.45v.45a1,1,0,1,0,2,0V8.94H60a1,1,0,1,0,0-2h-.46V6.48a1,1,0,1,0-2,0Z"/><path class="cls-3" d="M32,59.57A2.13,2.13,0,0,1,30,58.41h0l-1.51-2.89a.15.15,0,0,0-.11-.08l-3.21-.54a2.14,2.14,0,0,1-1.69-1.46A2.11,2.11,0,0,1,24,51.28L26.31,49a.13.13,0,0,0,0-.13l-.47-3.23A2.14,2.14,0,0,1,29,43.35l2.92,1.45a.12.12,0,0,0,.13,0l2.93-1.45A2.14,2.14,0,0,1,38,45.59l-.48,3.23a.14.14,0,0,0,0,.12l2.29,2.33a2.15,2.15,0,0,1-1.18,3.63l-3.22.54a.15.15,0,0,0-.11.08l-1.51,2.89A2.13,2.13,0,0,1,32,59.57Zm-.14-2.08a.16.16,0,0,0,.27,0l1.51-2.9a2.16,2.16,0,0,1,1.55-1.12l3.22-.54a.14.14,0,0,0,.11-.1.15.15,0,0,0,0-.16l-2.29-2.33a2.12,2.12,0,0,1-.59-1.81L36,45.3a.15.15,0,0,0-.06-.15.16.16,0,0,0-.15,0L32.9,46.59a2.14,2.14,0,0,1-1.91,0l-2.92-1.45a.16.16,0,0,0-.15,0,.17.17,0,0,0-.07.14l.48,3.24a2.15,2.15,0,0,1-.59,1.82l-2.29,2.33a.15.15,0,0,0,0,.15.15.15,0,0,0,.12.1l3.22.54a2.16,2.16,0,0,1,1.55,1.12Z"/><path class="cls-3" d="M14.21,45a2.15,2.15,0,0,1-1.91-1.16L10.79,41a.15.15,0,0,0-.11-.08l-3.22-.54a2.16,2.16,0,0,1-1.17-3.63L8.57,34.4a.14.14,0,0,0,0-.12l-.48-3.23A2.19,2.19,0,0,1,9,29a2.16,2.16,0,0,1,2.23-.18l2.92,1.45a.15.15,0,0,0,.13,0l2.93-1.45a2.15,2.15,0,0,1,3.08,2.24l-.48,3.23a.14.14,0,0,0,0,.12l2.29,2.33A2.15,2.15,0,0,1,21,40.36l-3.22.54a.15.15,0,0,0-.11.08l-1.51,2.89A2.15,2.15,0,0,1,14.21,45Zm-4-14.45a.16.16,0,0,0-.09,0,.15.15,0,0,0-.06.14L10.59,34A2.14,2.14,0,0,1,10,35.8L7.71,38.13a.16.16,0,0,0,0,.15.15.15,0,0,0,.12.11l3.22.54a2.15,2.15,0,0,1,1.55,1.13L14.07,43h0a.16.16,0,0,0,.27,0l1.51-2.9a2.13,2.13,0,0,1,1.55-1.12l3.22-.55a.12.12,0,0,0,.11-.1.14.14,0,0,0,0-.15l-2.29-2.32A2.16,2.16,0,0,1,17.82,34l.48-3.23a.15.15,0,0,0-.06-.14.14.14,0,0,0-.15,0l-2.93,1.45a2.14,2.14,0,0,1-1.91,0L10.33,30.6Z"/><path class="cls-3" d="M48.52,34.72a2.14,2.14,0,0,1-1.9-1.15h0l-1.51-2.9a.21.21,0,0,0-.11-.08l-3.22-.54a2.14,2.14,0,0,1-1.18-3.62l2.24-2.28c.08-.09.1-.13.09-.18l-.48-3.23a2.15,2.15,0,0,1,3.08-2.24L48.45,20a.17.17,0,0,0,.14,0l2.92-1.46a2.15,2.15,0,0,1,3.08,2.24L54.11,24a.15.15,0,0,0,0,.13l2.28,2.33a2.14,2.14,0,0,1-1.18,3.62L52,30.59a.16.16,0,0,0-.1.08l-1.51,2.9A2.16,2.16,0,0,1,48.52,34.72Zm-.13-2.08a.15.15,0,0,0,.26,0l1.51-2.89a2.15,2.15,0,0,1,1.55-1.13l3.22-.54a.15.15,0,0,0,.12-.1.14.14,0,0,0,0-.15L52.73,25.5a2.15,2.15,0,0,1-.59-1.82l.47-3.23a.13.13,0,0,0-.06-.14.14.14,0,0,0-.15,0l-2.92,1.46a2.16,2.16,0,0,1-1.92,0l-2.92-1.46a.14.14,0,0,0-.15,0,.13.13,0,0,0-.06.14l.48,3.23a2.15,2.15,0,0,1-.59,1.82L42,27.83a.15.15,0,0,0,.08.25l3.22.54a2.15,2.15,0,0,1,1.55,1.13Z"/></g></svg>