<?xml version="1.0" ?><svg viewBox="0 0 576 512" xmlns="http://www.w3.org/2000/svg" fill="url(#grad1)">
	 <defs>
        <linearGradient id="grad1" x1="0%" y1="0%" x2="100%" y2="0%">
            <stop offset="0%" style="stop-color:#fff;stop-opacity:1" />
            <stop offset="100%" style="stop-coloR:#fff;stop-opacity:1" />
        </linearGradient>
    </defs>
<path d="M327.1 96c-89.97 0-168.54 54.77-212.27 101.63L27.5 131.58c-12.13-9.18-30.24.6-27.14 14.66L24.54 256 .35 365.77c-3.1 14.06 15.01 23.83 27.14 14.66l87.33-66.05C158.55 361.23 237.13 416 327.1 416 464.56 416 576 288 576 256S464.56 96 327.1 96zm87.43 184c-13.25 0-24-10.75-24-24 0-13.26 10.75-24 24-24 13.26 0 24 10.74 24 24 0 13.25-10.75 24-24 24z"/></svg>