<?xml version="1.0" ?><svg viewBox="0 0 64 64" xmlns="http://www.w3.org/2000/svg"><defs><style>.cls-1{fill:#767689;}.cls-1,.cls-4{fill-rule:evenodd;}.cls-2{fill:#e6e5e1;}.cls-3{fill:#fcc667;}.cls-4{fill:#f9f9f9;}.cls-5{fill:#fbae36;}.cls-6{fill:#cac7c1;}</style></defs><g id="Gas"><path class="cls-1" d="M26.86,4.88A.89.89,0,0,0,26,4H20.44a.89.89,0,0,0-.88.88V8.46h7.3Z"/><path class="cls-1" d="M44.44,4.88A.89.89,0,0,0,43.56,4H38a.89.89,0,0,0-.88.88V8.46h7.3Z"/><path class="cls-2" d="M23.21,7.68A8.77,8.77,0,0,1,32,16.47V51.21a8.79,8.79,0,1,1-17.58,0V16.47A8.77,8.77,0,0,1,23.21,7.68Z"/><rect class="cls-3" height="22.04" width="17.58" x="14.42" y="26.24"/><path class="cls-2" d="M40.79,7.68a8.77,8.77,0,0,1,8.79,8.79V51.21a8.79,8.79,0,0,1-17.58,0V16.47A8.77,8.77,0,0,1,40.79,7.68Z"/><rect class="cls-3" height="22.04" width="17.58" x="32" y="26.24"/><path class="cls-4" d="M40.08,32H45.9a1,1,0,0,0,0-2H40.08a1,1,0,0,0,0,2Z"/><path class="cls-4" d="M40.08,35.11H43.2a1,1,0,0,0,0-2H40.08a1,1,0,0,0,0,2Z"/><path class="cls-4" d="M40.08,38.26H45.9a1,1,0,0,0,0-2H40.08a1,1,0,0,0,0,2Z"/><path class="cls-4" d="M40.08,41.41H43.2a1,1,0,0,0,0-2H40.08a1,1,0,0,0,0,2Z"/><path class="cls-4" d="M40.08,44.56H45.9a1,1,0,1,0,0-2H40.08a1,1,0,0,0,0,2Z"/><path class="cls-5" d="M36.78,29.86a1.1,1.1,0,1,0,1.1,1.1A1.1,1.1,0,0,0,36.78,29.86Z"/><path class="cls-5" d="M36.78,33a1.1,1.1,0,1,0,1.1,1.1A1.1,1.1,0,0,0,36.78,33Z"/><path class="cls-5" d="M36.78,36.16a1.1,1.1,0,1,0,1.1,1.1A1.1,1.1,0,0,0,36.78,36.16Z"/><path class="cls-5" d="M36.78,39.31a1.1,1.1,0,0,0,0,2.2,1.1,1.1,0,1,0,0-2.2Z"/><path class="cls-5" d="M36.78,42.47a1.1,1.1,0,1,0,1.1,1.09A1.1,1.1,0,0,0,36.78,42.47Z"/><path class="cls-4" d="M22.5,32h5.82a1,1,0,0,0,0-2H22.5a1,1,0,0,0,0,2Z"/><path class="cls-4" d="M22.5,35.11h3.12a1,1,0,1,0,0-2H22.5a1,1,0,0,0,0,2Z"/><path class="cls-4" d="M22.5,38.26h5.82a1,1,0,0,0,0-2H22.5a1,1,0,0,0,0,2Z"/><path class="cls-4" d="M22.5,41.41h3.12a1,1,0,1,0,0-2H22.5a1,1,0,0,0,0,2Z"/><path class="cls-4" d="M22.5,44.56h5.82a1,1,0,0,0,0-2H22.5a1,1,0,0,0,0,2Z"/><path class="cls-5" d="M19.2,29.86A1.1,1.1,0,1,0,20.3,31,1.1,1.1,0,0,0,19.2,29.86Z"/><path class="cls-5" d="M19.2,33a1.1,1.1,0,1,0,1.1,1.1A1.1,1.1,0,0,0,19.2,33Z"/><path class="cls-5" d="M19.2,36.16a1.1,1.1,0,1,0,1.1,1.1A1.1,1.1,0,0,0,19.2,36.16Z"/><path class="cls-5" d="M19.2,39.31a1.1,1.1,0,1,0,1.1,1.1A1.1,1.1,0,0,0,19.2,39.31Z"/><path class="cls-5" d="M19.2,42.47a1.1,1.1,0,1,0,1.1,1.09A1.09,1.09,0,0,0,19.2,42.47Z"/><path class="cls-6" d="M23.21,61a9.8,9.8,0,0,1-9.79-9.79V16.47a9.79,9.79,0,1,1,19.58,0V51.21A9.8,9.8,0,0,1,23.21,61Zm0-52.32a7.79,7.79,0,0,0-7.79,7.79V51.21a7.79,7.79,0,1,0,15.58,0V16.47A7.8,7.8,0,0,0,23.21,8.68Z"/><path class="cls-6" d="M40.79,61A9.8,9.8,0,0,1,31,51.21V16.47a9.79,9.79,0,1,1,19.58,0V51.21A9.8,9.8,0,0,1,40.79,61Zm0-52.32A7.8,7.8,0,0,0,33,16.47V51.21a7.79,7.79,0,0,0,15.58,0V16.47A7.79,7.79,0,0,0,40.79,8.68Z"/></g></svg>