<?xml version="1.0" ?>
<svg viewBox="0 0 64 64" xmlns="http://www.w3.org/2000/svg"><defs>
<style>.cls-1{fill:#767689;}.cls-1,.cls-4{fill-rule:evenodd;}.cls-2{fill:#e03218;}.cls-3{fill:#fcc667;}.cls-4{fill:#f9f9f9;}</style></defs><g data-name="Laser Gun" id="Laser_Gun"><path class="cls-1" d="M48.26,23.68H46.78V23a1,1,0,1,0-2,0v.64H42.69a1,1,0,0,0,0,2h2.09v.64a1,1,0,0,0,2,0v-.64h1.48v.64a1,1,0,0,0,2,0v-.64H53a1,1,0,0,0,0-2H50.26V23a1,1,0,0,0-2,0Z"/><path class="cls-2" d="M59.15,24.68A3.72,3.72,0,1,1,55.44,21,3.71,3.71,0,0,1,59.15,24.68Z"/><path class="cls-3" d="M38.35,19.84l3.59,1.09a1,1,0,0,1,.75,1v5.47a1,1,0,0,1-.75,1l-3.59,1.09Z"/><path class="cls-2" d="M12,16.9a1.45,1.45,0,0,0-1,.42,1.42,1.42,0,0,0-.43,1V31a1.41,1.41,0,0,0,.43,1,1.46,1.46,0,0,0,1,.43h2.47l-3.61,12.8a1.45,1.45,0,0,0,1.4,1.84H19a1.46,1.46,0,0,0,1.4-1.05c.94-3.37,3.82-13.59,3.82-13.59h11.2a3,3,0,0,0,2.94-2.95V19.84a2.94,2.94,0,0,0-2.94-2.94Z"/><path class="cls-3" d="M10.51,21.43H28.59a3.15,3.15,0,0,1,0,6.3H10.51Z"/><path class="cls-4" d="M10.51,18.91H6.3a1.45,1.45,0,0,0-1,.42,1.46,1.46,0,0,0-.43,1V28.8a1.46,1.46,0,0,0,.43,1,1.45,1.45,0,0,0,1,.42h4.21Z"/><path class="cls-3" d="M19.59,35.4a1.47,1.47,0,0,0-1.4,1.06l-3,10.64H19a1.46,1.46,0,0,0,1.4-1.05l3-10.65Z"/><path class="cls-4" d="M28.3,23.58H23.88a1,1,0,1,0,0,2H28.3a1,1,0,0,0,0-2Z"/></g></svg>