<?xml version="1.0" ?><svg viewBox="0 0 64 64" xmlns="http://www.w3.org/2000/svg"><defs><style>.cls-1,.cls-4{fill:#fcc667;}.cls-2,.cls-3{fill:#fe8657;}.cls-3,.cls-4{fill-rule:evenodd;}</style></defs><g data-name="Exo Planet" id="Exo_Planet"><circle class="cls-1" cx="32" cy="32" r="28"/><path class="cls-2" d="M44,7.59a24.38,24.38,0,0,0-18.17,8.16c-2.85,3.19-7.36,6.16-9.53,6.16H5.88a27.56,27.56,0,0,0-1.42,5H16.29c5,0,10-4.17,13.28-7.85A19.32,19.32,0,0,1,44,12.61H52.2a27.78,27.78,0,0,0-6.49-5ZM4.46,37.05a27.23,27.23,0,0,0,1.42,5H16.29c2.17,0,6.68,3,9.53,6.17A24.38,24.38,0,0,0,44,56.41h1.72a27.56,27.56,0,0,0,6.49-5H44A19.31,19.31,0,0,1,29.57,44.9c-3.29-3.68-8.3-7.85-13.28-7.85Z"/><path class="cls-2" d="M44,17.69a14.31,14.31,0,0,0,0,28.62H56.07A29,29,0,0,0,58.3,41.6H44a9.6,9.6,0,1,1,0-19.2H58.3a29,29,0,0,0-2.23-4.71Z"/><path class="cls-2" d="M44,27.05A5,5,0,0,0,44,37H59.56a28.06,28.06,0,0,0,0-9.9Z"/><path class="cls-2" d="M8.34,47a27.66,27.66,0,0,0,3.14,4.08h6a2,2,0,0,0,0-4.08Z"/><path class="cls-2" d="M11.48,13A27.66,27.66,0,0,0,8.34,17h9.11a2,2,0,0,0,0-4.08Z"/><path class="cls-3" d="M11.62,31H4a1,1,0,0,0-1,1v.2l.05.19.09.17.12.16.15.13.17.1.18.06L4,33h7.65a1,1,0,0,0,0-2Z"/><path class="cls-4" d="M60,31H48.48a1,1,0,1,0,0,2H60a1,1,0,0,0,0-2Z"/><path class="cls-3" d="M16.7,33h2.72a1,1,0,0,0,0-2H16.7a1,1,0,0,0,0,2Z"/><g id="path4264"><path class="cls-2" d="M32,61A29,29,0,1,1,61,32,29,29,0,0,1,32,61ZM32,5A27,27,0,1,0,59,32,27,27,0,0,0,32,5Z"/></g></g></svg>