<?xml version="1.0" ?>
<svg viewBox="0 0 64 64" xmlns="http://www.w3.org/2000/svg"><defs>
<style>.cls-1{fill:#f4f4f4;}.cls-2{fill:#d0dfc7;}</style></defs><g id="Venus"><path class="cls-1" d="M59.75,28.29c-3.53-5.06-2.55-7-5-7-7.37,0-4.54,3.64-4.54-3.73,0-4-4.3-6.9-6.07-10.82h0A28,28,0,0,0,25.28,4.82h0C26.9,6.35,22.9,7.35,22.9,9.76c0,4.63-1,2.12-5.67,2.12-3.91,0,1.32.18-5.81,1.14a28,28,0,0,0-5.25,29.8C8.12,45.73,9,45,10.88,45.35c4.66.83.54,1.65-.12,4.89a28.37,28.37,0,0,0,8.51,6.7c.61-1.86,2.58,1,4.54,1l.47-.69c2.51,0,1-2.1,1,.41,0,.46,2.77,1.65,2.64,2.08h0A28.78,28.78,0,0,0,32,60a27,27,0,0,0,4-.3C32.63,56.65,44,53,44.92,48.16c1.24-6.33,4.87.42,5.78.6,4.43.87,4.74-8.32,6.45-4.46h0A27.9,27.9,0,0,0,60,32,28.42,28.42,0,0,0,59.75,28.29Z"/><path class="cls-1" d="M46.56,41.34A8.52,8.52,0,0,0,42.64,57.9h0A28,28,0,0,0,53.42,50,8.48,8.48,0,0,0,46.56,41.34Z"/><path class="cls-2" d="M25.28,4.82A28,28,0,0,0,11.42,13a8.38,8.38,0,1,0,13.86-8.2Z"/><path class="cls-2" d="M44.12,6.76A13.37,13.37,0,0,0,53,30.16a13.23,13.23,0,0,0,6.77-1.87,27.73,27.73,0,0,0-2.89-9.17A4.53,4.53,0,1,1,52,12.35,28.14,28.14,0,0,0,44.12,6.76Z"/><path class="cls-1" d="M53,21.31a4.54,4.54,0,0,0,3.87-2.18A28,28,0,0,0,52,12.35a4.54,4.54,0,0,0,1,9Z"/><path class="cls-2" d="M33.15,22.94a3.43,3.43,0,1,0,3.45,3.41A3.41,3.41,0,0,0,33.15,22.94Z"/><path class="cls-2" d="M14.29,23.74a2.44,2.44,0,0,0-.43,4.84A8.52,8.52,0,1,1,6.17,42.82a28.14,28.14,0,0,0,4.59,7.42,13.38,13.38,0,0,0,4-26.46A2.15,2.15,0,0,0,14.29,23.74Z"/><path class="cls-2" d="M12.05,32.68a4.61,4.61,0,0,0-4.17,3.64,4.54,4.54,0,0,0,9,1.44,4.56,4.56,0,0,0-3.94-5.08A4,4,0,0,0,12.05,32.68Z"/><path class="cls-2" d="M44.81,36.31a13.38,13.38,0,0,0-8.76,23.4,28.37,28.37,0,0,0,6.59-1.81A8.51,8.51,0,1,1,53.42,50a28.05,28.05,0,0,0,3.73-5.73,13.38,13.38,0,0,0-9.65-7.74A13,13,0,0,0,44.81,36.31Z"/><path class="cls-2" d="M45.22,46.55a4.4,4.4,0,1,0,.87,0A6.32,6.32,0,0,0,45.22,46.55Z"/><path class="cls-2" d="M23.57,53.81a4.55,4.55,0,0,0-4.3,3.13,27.7,27.7,0,0,0,8.66,2.76,4.68,4.68,0,0,0,.2-1.34,4.55,4.55,0,0,0-4.55-4.55Z"/><g id="path3762"><path class="cls-2" d="M32,61A29,29,0,1,1,61,32,29,29,0,0,1,32,61ZM32,5A27,27,0,1,0,59,32,27,27,0,0,0,32,5Z"/></g></g></svg>