<?xml version="1.0" ?><svg viewBox="0 0 64 64" xmlns="http://www.w3.org/2000/svg"><title/><g id="Rocket"><path d="M17.4946,40.3253a1,1,0,0,0-1.6558.3906L12.2734,51.4127a1,1,0,0,0,.2417,1.0234l9.27,9.27a1,1,0,0,0,1.4141,0l7.1308-7.1308a1,1,0,0,0,0-1.4141Z" style="fill:#e84a5f"/><path d="M61.7065,21.7852l-9.27-9.27a.9991.9991,0,0,0-1.0235-.2417L40.7163,15.8384a1,1,0,0,0-.3907,1.6558L53.1616,30.33a.9995.9995,0,0,0,1.414,0l7.1309-7.1308A1,1,0,0,0,61.7065,21.7852Z" style="fill:#e84a5f"/><path d="M54.5766,28.9122,32.6753,7.0108A17.2245,17.2245,0,0,0,17.6489,2.2437l-12.44,2.15a1,1,0,0,0-.8149.815l-2.15,12.4423a17.2209,17.2209,0,0,0,4.7686,15.025l21.9,21.9a.9995.9995,0,0,0,1.414,0l8.05-8.05a1,1,0,0,0-.7759-1.7045l-2.0932.144-1.1856-10.644,10.6446,1.1855L44.8217,37.6a1,1,0,0,0,1.7046.7758l8.05-8.05a.9995.9995,0,0,0,0-1.414Z" style="fill:#d6daf2"/><path d="M53.8686,54.8682a.9967.9967,0,0,1-.707-.2929l-4.2788-4.2788a1,1,0,1,1,1.414-1.4141l4.2788,4.2788a1,1,0,0,1-.707,1.707Z" style="fill:#ff847c"/><path d="M45.3115,60.5728a.9966.9966,0,0,1-.707-.2929l-8.5572-8.5572a1,1,0,0,1,1.4141-1.414l8.5571,8.5571a1,1,0,0,1-.707,1.707Z" style="fill:#ff847c"/><path d="M46.7378,54.8682a.9968.9968,0,0,1-.7071-.2929L42.4653,51.01a1,1,0,1,1,1.4141-1.414l3.5654,3.5654a1,1,0,0,1-.707,1.707Z" style="fill:#ff847c"/><path d="M59.5732,46.3111a.9967.9967,0,0,1-.707-.293L50.309,37.461a1,1,0,0,1,1.4141-1.4141L60.28,44.6041a1,1,0,0,1-.707,1.707Z" style="fill:#ff847c"/><path d="M53.8686,47.7374a.9969.9969,0,0,1-.707-.293L49.5962,43.879a1,1,0,0,1,1.414-1.4141L54.5756,46.03a1,1,0,0,1-.707,1.7071Z" style="fill:#ff847c"/><path d="M40.3139,33.1944,25.8667,18.7471a1,1,0,0,0-1.6929.5386,6.0384,6.0384,0,0,1-4.8877,4.8877,1,1,0,0,0-.5386,1.6929L33.1948,40.3135a1,1,0,0,0,1.7007-.8173L34.3208,34.32l5.1757.5747a1,1,0,0,0,.8174-1.7007Z" style="fill:#ff847c"/><path d="M23.9126,12.5147a8.0592,8.0592,0,1,0-5.712,13.7583,8.0618,8.0618,0,0,0,5.712-13.7583Z" style="fill:#e84a5f"/><path d="M46.1347,33.6212,33.2993,32.1949a.9995.9995,0,0,0-1.104,1.104l1.4262,12.8354a1,1,0,0,0,.9927.89c.0225,0,.0454-.0005.0684-.0024l10.6948-.7124a1.0005,1.0005,0,0,0,.9321-.9322l.7124-10.6948A1,1,0,0,0,46.1347,33.6212Z" style="fill:#e84a5f"/><g style="opacity:0.1"><path d="M61.7065,21.7852l-9.27-9.27a.9991.9991,0,0,0-1.0235-.2417L41.3107,15.64l-.0012-.0012-8.63-8.63a17.2651,17.2651,0,0,0-4.83-3.38,30.8819,30.8819,0,0,1,6.79,19.37,31.2184,31.2184,0,0,1-.29,4.24,31.2536,31.2536,0,0,1-1.09,4.96c-.27.85-.57,1.66-.91,2.48v.02a30.7672,30.7672,0,0,1-1.53,3.23,31.3,31.3,0,0,1-7.06,8.66c-.51.43-1.04.85-1.58,1.26a31.2246,31.2246,0,0,1-9.45,4.8l9.06,9.06a1.001,1.001,0,0,0,.7.29,1.0243,1.0243,0,0,0,.71-.29l7.13-7.13,7.79-7.79,7.26-.48a.9921.9921,0,0,0,.93-.93l.48-7.26,7.79-7.79.0052-.008,7.1218-7.1218A1,1,0,0,0,61.7065,21.7852Z"/><path d="M50.2968,48.8824a1,1,0,1,0-1.414,1.4141l4.2788,4.2788a1,1,0,1,0,1.414-1.4141Z"/><path d="M37.4614,50.3087a1,1,0,0,0-1.4141,1.414L44.6045,60.28a1,1,0,1,0,1.414-1.4141Z"/><path d="M43.8794,49.5958a1,1,0,1,0-1.4141,1.414l3.5654,3.5655a1,1,0,1,0,1.4141-1.4141Z"/><path d="M51.7231,36.0469A1,1,0,0,0,50.309,37.461l8.5572,8.5571a1,1,0,0,0,1.414-1.414Z"/><path d="M51.01,42.4649a1,1,0,0,0-1.414,1.4141l3.5654,3.5654a1,1,0,1,0,1.414-1.4141Z"/></g></g></svg>