<?xml version="1.0" ?><svg viewBox="0 0 64 64" xmlns="http://www.w3.org/2000/svg"><defs><style>.cls-1{fill:#fe8657;}.cls-2{fill:#767689;}.cls-3{fill:#f9f9f9;}.cls-3,.cls-4{fill-rule:evenodd;}.cls-4{fill:#fcc667;}</style></defs><g id="Satellite"><path class="cls-1" d="M21.06,40.17l-5.54,3.31a1.52,1.52,0,0,0-.29,2.37l2.92,2.92a1.52,1.52,0,0,0,2.37-.29l3.31-5.54Z"/><path class="cls-2" d="M44.93,19.07a6.86,6.86,0,0,0-9.75,0L22.25,32A6.9,6.9,0,0,0,32,41.75L44.93,28.83A6.87,6.87,0,0,0,44.93,19.07Z"/><path class="cls-1" d="M40.68,23.32a2.59,2.59,0,0,0-3.66,0l-6.39,6.39a2.59,2.59,0,0,0,3.66,3.66L40.68,27A2.59,2.59,0,0,0,40.68,23.32Z"/><rect class="cls-1" height="3.49" transform="translate(-14.2 38.77) rotate(-45)" width="10.06" x="34.68" y="34.78"/><path class="cls-3" d="M47,31.7a2.37,2.37,0,0,1,3.33,0c2.15,2.16,5.86,5.87,8,8a2.37,2.37,0,0,1,0,3.33l-12.1,12.1a2.35,2.35,0,0,1-3.33,0l-8-8a2.35,2.35,0,0,1,0-3.33Z"/><rect class="cls-1" height="3.49" transform="translate(-9.13 26.55) rotate(-45)" width="10.06" x="22.45" y="22.55"/><path class="cls-3" d="M20.2,29.11a2.35,2.35,0,0,1-3.33,0l-8-8a2.35,2.35,0,0,1,0-3.33L21,5.67a2.34,2.34,0,0,1,3.33,0l8,8a2.37,2.37,0,0,1,0,3.34Z"/><path class="cls-4" d="M14.35,59.29,4.71,49.65a1,1,0,0,0-1.42,1.42l9.64,9.64a1,1,0,1,0,1.42-1.42Z"/><path class="cls-4" d="M13.66,54.8,9.2,50.34a1,1,0,0,0-1.41,1.41l4.46,4.46a1,1,0,0,0,1.41-1.41Z"/><path class="cls-4" d="M16.69,54,10,47.31a1,1,0,1,0-1.42,1.42l6.7,6.7a1,1,0,0,0,1.42,0A1,1,0,0,0,16.69,54Z"/><path class="cls-4" d="M16.34,49.85l-2.19-2.19a1,1,0,0,0-1.42,1.42l2.19,2.19a1,1,0,0,0,1.42-1.42Z"/></g></svg>