<?xml version="1.0" ?><svg viewBox="0 0 64 64" xmlns="http://www.w3.org/2000/svg"><defs><style>.cls-1,.cls-4{fill:#e6e5e1;}.cls-2{fill:#cac7c1;}.cls-2,.cls-4,.cls-5{fill-rule:evenodd;}.cls-3{fill:#767689;}.cls-5{fill:#f9f9f9;}</style></defs><g id="Spacesuttle"><path class="cls-1" d="M22.2,49.8V20.57c0-6.71,6.15-13.19,8.7-15.59a1.63,1.63,0,0,1,2.2,0c2.55,2.4,8.7,8.88,8.7,15.59V49.8Z"/><path class="cls-1" d="M18.38,27.66c0-3.4-2.79-6.69-4.41-8.32a1.62,1.62,0,0,0-2.28,0c-1.62,1.63-4.4,4.92-4.4,8.32V52.93a1.17,1.17,0,0,0,.34.83,1.15,1.15,0,0,0,.84.35h9.91Z"/><path class="cls-2" d="M17.14,54.11H9.25v3.11a1.05,1.05,0,0,0,1.05,1.06h6.84Z"/><path class="cls-3" d="M12.83,31a1.92,1.92,0,0,1,1.92,1.92v9.77a1.92,1.92,0,0,1-3.84,0V32.9A1.92,1.92,0,0,1,12.83,31Z"/><path class="cls-1" d="M45.62,54.11V27.66c0-3.4,2.78-6.69,4.41-8.32a1.62,1.62,0,0,1,2.28,0c1.62,1.63,4.4,4.92,4.4,8.32V52.93a1.17,1.17,0,0,1-.34.83,1.15,1.15,0,0,1-.84.35Z"/><path class="cls-2" d="M46.85,54.11h7.9v3.11a1.05,1.05,0,0,1-1.06,1.06H46.85Z"/><path class="cls-3" d="M51.17,31a1.92,1.92,0,0,0-1.92,1.92v9.77a1.92,1.92,0,0,0,3.84,0V32.9A1.92,1.92,0,0,0,51.17,31Z"/><path class="cls-3" d="M32,15.75a3.43,3.43,0,1,1-3.43,3.43A3.44,3.44,0,0,1,32,15.75Z"/><rect class="cls-3" height="9.32" width="3.82" x="18.38" y="34.81"/><rect class="cls-3" height="9.32" width="3.82" x="41.8" y="34.81"/><path class="cls-3" d="M26.1,58.28h-9V52.85a2.61,2.61,0,0,1,2.61-2.61,7.08,7.08,0,0,0,5.43-2.54h0a3.93,3.93,0,0,0,.92-2.55v-4.1c0-3.86,3.37-8.26,5-10.19a1.17,1.17,0,0,1,.89-.41,1.19,1.19,0,0,1,.89.41c1.64,1.93,5,6.33,5,10.19v4.1a3.93,3.93,0,0,0,.92,2.55h0a7.06,7.06,0,0,0,5.43,2.54,2.6,2.6,0,0,1,2.6,2.61v5.43Z"/><path class="cls-4" d="M34.16,53.93a1,1,0,0,0-.29-.71,1,1,0,0,0-.72-.3h-2.3a1,1,0,0,0-.72.3,1,1,0,0,0-.3.71V59a1,1,0,0,0,.3.71,1,1,0,0,0,.72.3h2.3a1,1,0,0,0,.72-.3,1,1,0,0,0,.29-.71Z"/><path class="cls-4" d="M30.78,39.27a1.31,1.31,0,0,1,2.44,0,1,1,0,0,0,1.22.72,1,1,0,0,0,.72-1.21,3.3,3.3,0,0,0-6.32,0,1,1,0,1,0,1.94.48Z"/><path class="cls-5" d="M26.1,54.32h-9a1,1,0,0,0,0,2h9a1,1,0,0,0,0-2Z"/><path class="cls-5" d="M46.85,54.32h-9a1,1,0,0,0,0,2h9a1,1,0,0,0,0-2Z"/></g></svg>