<?xml version="1.0" ?><svg viewBox="0 0 64 64" xmlns="http://www.w3.org/2000/svg"><defs><style>.cls-1{fill:#cac7c1;}.cls-2{fill:#f9f9f9;}.cls-3,.cls-6{fill:#767689;}.cls-4{fill:#60e977;}.cls-5{fill:#fcc667;}.cls-5,.cls-6{fill-rule:evenodd;}</style></defs><g id="Sputnik"><path class="cls-1" d="M32.07,7.84A17.12,17.12,0,0,1,56.16,31.93Z"/><path class="cls-1" d="M26,24.25H5.62a1.62,1.62,0,1,0,0,3.23H27C27.91,26.26,28.91,25,26,24.25ZM36.52,37V58.38a1.62,1.62,0,1,0,3.23,0V38C39.78,35.06,38.12,36.12,36.52,37Z"/><path class="cls-2" d="M32,34.32a17.12,17.12,0,0,0,21.72.09L29.59,10.32A17.12,17.12,0,0,0,29.68,32Z"/><path class="cls-3" d="M30.91,6.68,57.32,33.09a1.75,1.75,0,0,1-2.48,2.48L28.43,9.16a1.75,1.75,0,0,1,2.48-2.48Z"/><path class="cls-4" d="M36.9,17.63a6.69,6.69,0,0,0,9.47,9.46Z"/><path class="cls-1" d="M34.62,29.38a1.59,1.59,0,0,1,0,2.28L23.29,43A1.62,1.62,0,1,1,21,40.71L32.34,29.38A1.59,1.59,0,0,1,34.62,29.38Z"/><path class="cls-2" d="M50.88,15.78a1.88,1.88,0,1,1,0-2.66A1.89,1.89,0,0,1,50.88,15.78Z"/><path class="cls-5" d="M53.89,53.28h-.31a1,1,0,0,0,0,2h.31v.31a1,1,0,0,0,2,0v-.31h.31a1,1,0,0,0,0-2h-.31V53a1,1,0,0,0-2,0Z"/><path class="cls-5" d="M24.79,49.9h-.31a1,1,0,1,0,0,2h.31v.31a1,1,0,0,0,2,0V51.9h.3a1,1,0,0,0,0-2h-.3v-.3a1,1,0,0,0-2,0Z"/><path class="cls-5" d="M46.18,43.79h-.3a1,1,0,0,0,0,2h.3v.3a1,1,0,0,0,2,0v-.3h.31a1,1,0,0,0,0-2h-.31v-.31a1,1,0,0,0-2,0Z"/><path class="cls-5" d="M6.08,34.64h-.3a1,1,0,0,0,0,2h.3V37a1,1,0,0,0,2,0v-.31h.31a1,1,0,0,0,0-2H8.08v-.3a1,1,0,0,0-2,0Z"/><path class="cls-6" d="M37.61,27.8l4.73-4.73a1,1,0,1,0-1.41-1.41L36.2,26.39a1,1,0,0,0,1.41,1.41Z"/><path class="cls-6" d="M56.44,19.93l-2.21-2.21a1,1,0,0,0-1.42,0,1,1,0,0,0,0,1.41L55,21.34a1,1,0,0,0,1.42,0A1,1,0,0,0,56.44,19.93Z"/><path class="cls-5" d="M17.57,16.76h-.31a1,1,0,0,0,0,2h.31v.31a1,1,0,0,0,2,0v-.31h.3a1,1,0,0,0,0-2h-.3v-.3a1,1,0,0,0-2,0Z"/><path class="cls-6" d="M46.28,9.77,44.07,7.56a1,1,0,0,0-1.41,0,1,1,0,0,0,0,1.42l2.21,2.2a1,1,0,0,0,1.41,0A1,1,0,0,0,46.28,9.77Z"/><path class="cls-5" d="M13,5.73h-.3a1,1,0,0,0,0,2H13V8a1,1,0,1,0,2,0v-.3h.31a1,1,0,0,0,0-2H15V5.42a1,1,0,0,0-2,0Z"/></g></svg>