<?xml version="1.0" ?><svg viewBox="0 0 64 64" xmlns="http://www.w3.org/2000/svg"><defs><style>.cls-1{fill:#fff;}.cls-1,.cls-2{fill-rule:evenodd;}.cls-2{fill:#fff;}</style></defs><g data-name="Star" id="Star-3"><path class="cls-1" d="M50.65,54.4h-1a1,1,0,0,0,0,2h1v1a1,1,0,0,0,2,0v-1h1a1,1,0,0,0,0-2h-1v-1a1,1,0,0,0-2,0Z"/><path class="cls-1" d="M12.49,48.58h-1a1,1,0,1,0,0,2h1v1a1,1,0,0,0,2,0v-1h1a1,1,0,0,0,0-2h-1v-1a1,1,0,0,0-2,0Z"/><path class="cls-1" d="M43,38.8H42a1,1,0,0,0,0,2h1v1a1,1,0,0,0,2,0v-1h1a1,1,0,0,0,0-2H45v-1a1,1,0,0,0-2,0Z"/><path class="cls-2" d="M10.12,36l10.06,5.8a1,1,0,0,0,1-1.73L11.12,34.24a1,1,0,0,0-1,1.74Z"/><path class="cls-2" d="M26.07,40.2l5.81-10.05a1,1,0,0,0-.37-1.37,1,1,0,0,0-1.36.37L24.34,39.2a1,1,0,0,0,.37,1.37A1,1,0,0,0,26.07,40.2Z"/><path class="cls-2" d="M50.37,26.19l3.79,6.57a1,1,0,0,0,1.73-1L52.1,25.19a1,1,0,0,0-1.37-.37A1,1,0,0,0,50.37,26.19Z"/><path class="cls-1" d="M20.2,28.09h-1a1,1,0,0,0,0,2h1v1a1,1,0,1,0,2,0v-1h1a1,1,0,0,0,0-2h-1v-1a1,1,0,0,0-2,0Z"/><path class="cls-2" d="M14.35,20l-5.81,10a1,1,0,0,0,1.74,1l5.8-10a1,1,0,0,0-.37-1.37A1,1,0,0,0,14.35,20Z"/><path class="cls-2" d="M36.13,27l10.44-2.44a1,1,0,0,0,.75-1.21,1,1,0,0,0-1.2-.74L35.67,25.05A1,1,0,1,0,36.13,27Z"/><path class="cls-2" d="M30.3,24.25l-10.06-5.8a1,1,0,0,0-1.36.36,1,1,0,0,0,.36,1.37L29.3,26a1,1,0,0,0,1.36-.36A1,1,0,0,0,30.3,24.25Z"/><path class="cls-1" d="M42.38,13.23h-1a1,1,0,0,0,0,2h1v1a1,1,0,0,0,2,0v-1h1a1,1,0,0,0,0-2h-1v-1a1,1,0,1,0-2,0Z"/><path class="cls-1" d="M5,8.35H4a1,1,0,0,0,0,2H5v1a1,1,0,0,0,2,0v-1H8a1,1,0,0,0,0-2H7v-1a1,1,0,0,0-2,0Z"/><path class="cls-1" d="M28.1,7.6h-1a1,1,0,0,0,0,2h1v1a1,1,0,0,0,2,0v-1h1a1,1,0,0,0,0-2h-1v-1a1,1,0,1,0-2,0Z"/><path class="cls-2" d="M25.71,38.83a4.32,4.32,0,1,0,1.58,5.9A4.32,4.32,0,0,0,25.71,38.83Z"/><path class="cls-2" d="M60.42,37.29a4.32,4.32,0,1,0-5.89,1.58A4.33,4.33,0,0,0,60.42,37.29Z"/><path class="cls-2" d="M9.91,29.71a4.32,4.32,0,1,0,1.58,5.9A4.33,4.33,0,0,0,9.91,29.71Z"/><path class="cls-2" d="M34.83,23a4.31,4.31,0,1,0,1.58,5.89A4.32,4.32,0,0,0,34.83,23Z"/><path class="cls-2" d="M51.73,19.08A4.32,4.32,0,1,0,53.31,25,4.32,4.32,0,0,0,51.73,19.08Z"/><path class="cls-2" d="M19,13.92a4.31,4.31,0,1,0,1.58,5.89A4.31,4.31,0,0,0,19,13.92Z"/></g></svg>