<?xml version="1.0" ?><!DOCTYPE svg  PUBLIC '-//W3C//DTD SVG 1.1//EN'  'http://www.w3.org/Graphics/SVG/1.1/DTD/svg11.dtd'><svg fill="#fff" enable-background="new 0 0 91 91" height="91px" id="Layer_1" version="1.1" viewBox="0 0 91 91" width="91px" xml:space="preserve" xmlns="http://www.w3.org/2000/svg" xmlns:xlink="http://www.w3.org/1999/xlink"><g><g><g><g><path d="M81.961,6.004c-4.664,0-8.477,3.669-8.73,8.271l-11.004,4.821c-1.58-1.556-3.748-2.52-6.137-2.52      c-4.824,0-8.75,3.929-8.75,8.757c0,2.958,1.477,5.572,3.727,7.158l-1.107,7.152c-0.064-0.002-0.125-0.01-0.189-0.01      c-3.984,0-7.35,2.68-8.404,6.333l-23.93,0.993c-1.111-3.563-4.438-6.154-8.359-6.154c-4.826,0-8.754,3.927-8.754,8.756      c0,4.828,3.928,8.756,8.754,8.756c0.17,0,0.336-0.016,0.504-0.025l4.195,13.008c-1.764,1.602-2.881,3.906-2.881,6.471      c0,4.83,3.926,8.758,8.752,8.758c4.232,0,7.773-3.018,8.586-7.014l11.596-4.861c1.348,3.105,4.438,5.283,8.029,5.283      c4.83,0,8.76-3.928,8.76-8.758c0-3.799-2.439-7.033-5.832-8.24l1.125-6.068c3.795-0.959,6.617-4.391,6.617-8.479      c0-2.958-1.479-5.573-3.73-7.159l1.107-7.153c0.063,0.002,0.123,0.01,0.186,0.01c4.83,0,8.76-3.928,8.76-8.756      c0-0.622-0.068-1.229-0.193-1.815l9.789-4.289c1.529,2.563,4.32,4.288,7.516,4.288c4.828,0,8.758-3.928,8.758-8.757      S86.789,6.004,81.961,6.004z M5.348,49.563c0-2.057,1.674-3.731,3.729-3.731c2.057,0,3.729,1.675,3.729,3.731      s-1.672,3.73-3.729,3.73C7.021,53.293,5.348,51.619,5.348,49.563z M14.305,56.568c1.508-1.129,2.641-2.727,3.178-4.582      l23.93-0.99c0.818,2.627,2.85,4.717,5.432,5.637l-1.127,6.068c-3.236,0.82-5.766,3.439-6.434,6.734l-11.6,4.863      c-1.348-3.104-4.441-5.279-8.037-5.279c-0.439,0-0.869,0.043-1.291,0.105L14.305,56.568z M19.646,81.504      c-2.055,0-3.727-1.674-3.727-3.732c0-2.055,1.672-3.727,3.727-3.727c2.061,0,3.736,1.672,3.736,3.727      C23.383,79.83,21.707,81.504,19.646,81.504z M47.857,74.912c-2.055,0-3.725-1.674-3.725-3.732c0-2.055,1.67-3.729,3.725-3.729      c0,0,0.002,0,0.004,0l0,0c2.059,0.002,3.73,1.674,3.73,3.729C51.592,73.238,49.918,74.912,47.857,74.912z M49.77,52.121      c-2.055,0-3.727-1.672-3.727-3.729s1.672-3.731,3.727-3.731c2.059,0,3.732,1.675,3.732,3.731S51.828,52.121,49.77,52.121z       M56.09,29.065c-2.055,0-3.725-1.674-3.725-3.73c0-2.058,1.67-3.731,3.725-3.731c2.059,0,3.734,1.674,3.734,3.731      C59.824,27.391,58.148,29.065,56.09,29.065z M81.961,18.493c-2.057,0-3.729-1.674-3.729-3.731s1.672-3.731,3.729-3.731      c2.059,0,3.732,1.674,3.732,3.731S84.02,18.493,81.961,18.493z"/></g></g></g></g></svg>