<?xml version="1.0" ?><svg viewBox="0 0 64 64" xmlns="http://www.w3.org/2000/svg"><defs><style>.cls-1{fill:#fcc667;fill-rule:evenodd;}.cls-2{fill:#cac7c1;}.cls-3{fill:#e6e5e1;}</style></defs><g id="Stone"><path class="cls-1" d="M35.15,51.74h-.3a1,1,0,0,0,0,2h.3v.31a1,1,0,0,0,2,0v-.31h.31a1,1,0,0,0,0-2h-.31v-.31a1,1,0,0,0-2,0Z"/><path class="cls-1" d="M9.2,35.06H8.89a1,1,0,0,0,0,2H9.2v.3a1,1,0,0,0,2,0v-.3h.31a1,1,0,0,0,0-2H11.2v-.31a1,1,0,0,0-2,0Z"/><path class="cls-1" d="M37.71,23.51h-.3a1,1,0,0,0,0,2h.3v.31a1,1,0,0,0,2,0v-.31H40a1,1,0,0,0,0-2h-.31v-.3a1,1,0,0,0-2,0Z"/><path class="cls-1" d="M52.74,18.47h-.31a1,1,0,0,0,0,2h.31v.31a1,1,0,1,0,2,0v-.31h.31a1,1,0,0,0,0-2h-.31v-.3a1,1,0,1,0-2,0Z"/><path class="cls-1" d="M24.46,12.64h-.31a1,1,0,0,0,0,2h.31V15a1,1,0,0,0,2,0v-.31h.3a1,1,0,1,0,0-2h-.3v-.3a1,1,0,1,0-2,0Z"/><path class="cls-2" d="M21.71,16.45c1.8,4.58-.91,10-4.75,11.47-1.93.76-3.39-1.11-5.25-2.11s-4.09-1.13-5-3.42c-1.8-4.57-.14-9.51,3.71-11A9.17,9.17,0,0,1,21.71,16.45Z"/><path class="cls-2" d="M19.54,46.59a8.55,8.55,0,0,1,3.1,11.09c-1,1.66-3.11,1.13-5,1.46S14,60.66,12,59.51C8.08,57.2,6.46,52.65,8.4,49.34A8.51,8.51,0,0,1,19.54,46.59Z"/><path class="cls-2" d="M46.77,12A7.82,7.82,0,0,1,39,19c-1.75-.12-2.19-2.09-3.24-3.52S33,13.17,33.16,11.09C33.44,6.94,36.5,3.77,40,4A7.77,7.77,0,0,1,46.77,12Z"/><path class="cls-2" d="M57.18,42.43C54.81,47.8,48,50,43.45,48c-2.26-1-1.9-3.81-2.6-6.22s-2.48-4.42-1.29-7.1c2.37-5.37,7.95-8.1,12.46-6.11S59.54,37.07,57.18,42.43Z"/><path class="cls-3" d="M55.06,40.29a4.6,4.6,0,0,0-4.55,4.6,4.64,4.64,0,0,0,1,2.92,10.53,10.53,0,0,0,5.63-5.38,8.68,8.68,0,0,0,.48-1.38,4.56,4.56,0,0,0-2.54-.76Z"/><path class="cls-3" d="M15.6,45.54a9.06,9.06,0,0,0-3.65.78,5.36,5.36,0,0,0,9.65,2,7.55,7.55,0,0,0-2.06-1.78A7.84,7.84,0,0,0,15.6,45.54Z"/><circle class="cls-3" cx="25.99" cy="34.76" r="3.17"/><path class="cls-3" d="M41.39,13.2a5.45,5.45,0,0,0-5,3.44h0C37.08,17.81,37.65,19,39,19a7.78,7.78,0,0,0,6.76-3.83h0a5.46,5.46,0,0,0-4.23-2Z"/><path class="cls-3" d="M49,32.21a2.17,2.17,0,1,1-2.17,2.17A2.17,2.17,0,0,1,49,32.21Z"/><path class="cls-3" d="M40.85,37.08a4.8,4.8,0,0,0-1.55.26l0,0c.27,1.5,1.15,2.87,1.6,4.41s.47,3.26,1,4.56l.08,0a4.72,4.72,0,0,0-1.11-9.31Z"/><path class="cls-3" d="M8.38,18.55a5.81,5.81,0,0,0-2.36.5v0a10.46,10.46,0,0,0,.71,3.32c.9,2.29,3.14,2.41,5,3.42A15.75,15.75,0,0,1,13.5,27a5.77,5.77,0,0,0-5.12-8.43Z"/><path class="cls-3" d="M16.57,16.53a1.6,1.6,0,1,1-2.2.52A1.59,1.59,0,0,1,16.57,16.53Z"/><path class="cls-3" d="M41.5,6.94a1.6,1.6,0,1,1-2.2.53A1.6,1.6,0,0,1,41.5,6.94Z"/><path class="cls-3" d="M19.5,53.84a1.6,1.6,0,1,1-2.2.53A1.58,1.58,0,0,1,19.5,53.84Z"/><g id="use2332"><path class="cls-3" d="M47.08,49.75a10,10,0,0,1-4-.81c-2.13-.94-2.47-3-2.77-4.91a15,15,0,0,0-.39-2,15.64,15.64,0,0,0-.7-1.81c-.74-1.7-1.58-3.63-.55-6,2.59-5.87,8.77-8.84,13.78-6.62a11.25,11.25,0,0,1,5.69,6.19,11.19,11.19,0,0,1-6.64,15.05A12.45,12.45,0,0,1,47.08,49.75Zm1.83-20.81c-3.33,0-6.76,2.36-8.44,6.16-.68,1.54-.13,2.79.55,4.37a17.11,17.11,0,0,1,.79,2.05,19.36,19.36,0,0,1,.45,2.19c.29,1.8.52,2.92,1.59,3.4a9.37,9.37,0,0,0,6.91-.06,9.56,9.56,0,0,0,5.5-5h0a9.48,9.48,0,0,0,0-7.41,9.37,9.37,0,0,0-4.63-5.11A6.6,6.6,0,0,0,48.91,28.94Z"/></g><g id="path2278"><path class="cls-3" d="M16.05,29.1a6.18,6.18,0,0,1-3.44-1.51,12.9,12.9,0,0,0-1.37-.9A13.45,13.45,0,0,0,9.76,26c-1.48-.57-3.16-1.22-4-3.28-2-5.08-.08-10.61,4.27-12.32a9.59,9.59,0,0,1,7.16.26,9.79,9.79,0,0,1,5.42,5.39,10.16,10.16,0,0,1-5.32,12.76A3.33,3.33,0,0,1,16.05,29.1ZM13.17,11.87a6.41,6.41,0,0,0-2.38.43C7.47,13.61,6.06,18,7.65,22c.47,1.18,1.38,1.59,2.84,2.15a15.5,15.5,0,0,1,1.7.75,15,15,0,0,1,1.59,1c1.23.88,2,1.36,2.81,1a8.19,8.19,0,0,0,4.19-10.17,7.76,7.76,0,0,0-4.33-4.27A8.53,8.53,0,0,0,13.17,11.87Z"/></g><g id="use2336"><path class="cls-3" d="M13.79,61a4.39,4.39,0,0,1-2.29-.63c-4.4-2.58-6.18-7.75-4-11.53A9,9,0,0,1,13,44.9a9.1,9.1,0,0,1,7.09.83h0a9.21,9.21,0,0,1,4.22,5.78,9,9,0,0,1-.76,6.68c-1,1.66-2.7,1.74-4.22,1.81a10.47,10.47,0,0,0-1.51.13,12.22,12.22,0,0,0-1.44.37A8.75,8.75,0,0,1,13.79,61Zm1.79-14.46a8,8,0,0,0-2.09.28,7.12,7.12,0,0,0-4.23,3c-1.66,2.83-.2,6.77,3.25,8.8,1,.58,1.89.35,3.25-.06a15.21,15.21,0,0,1,1.68-.44A15.49,15.49,0,0,1,19.2,58c1.38-.06,2.18-.13,2.58-.82A7.07,7.07,0,0,0,22.33,52,7.31,7.31,0,0,0,19,47.45h0A6.88,6.88,0,0,0,15.58,46.54Z"/></g><g id="use2338"><path class="cls-3" d="M39.34,20.05l-.44,0c-1.8-.12-2.61-1.58-3.26-2.75-.24-.42-.46-.82-.71-1.18a13.16,13.16,0,0,0-.89-1c-.94-1-2-2.13-1.88-4.07.32-4.69,3.84-8.3,7.9-8a8.74,8.74,0,0,1,7.71,9.05h0A8.81,8.81,0,0,1,39.34,20.05Zm.28-15c-2.81,0-5.23,2.69-5.46,6.16-.07,1,.43,1.6,1.34,2.56a13.8,13.8,0,0,1,1,1.2,14.82,14.82,0,0,1,.85,1.39C38,17.48,38.39,18,39,18a6.79,6.79,0,0,0,6.73-6.11A6.75,6.75,0,0,0,39.92,5Zm7.15,7h0Z"/></g></g></svg>