<?xml version="1.0" ?><svg viewBox="0 0 64 64" xmlns="http://www.w3.org/2000/svg"><defs><style>.cls-1,.cls-6{fill:#767689;}.cls-2{fill:#f9f9f9;}.cls-3{fill:#e6e5e1;}.cls-4{fill:#6cc5ef;}.cls-5{fill:#fcc667;}.cls-5,.cls-6{fill-rule:evenodd;}</style></defs><g data-name="UFO" id="UFO-3"><path class="cls-1" d="M18.29,4.73l41,41a2.48,2.48,0,1,1-3.5,3.51l-41-41a2.48,2.48,0,0,1,3.51-3.5Z"/><path class="cls-2" d="M58.17,44.61c1.4-1.4.6-4.73-1.82-9-1.24-2.2-.94-5.33.19-7.58A15.29,15.29,0,0,0,36,7.46c-2.25,1.13-5.38,1.43-7.58.19-4.29-2.42-7.62-3.22-9-1.82Z"/><path class="cls-3" d="M36.83,30.28,23.73,43.37a2.19,2.19,0,0,1-3.1-3.1l13.09-13.1Z"/><path class="cls-3" d="M29.87,23.32H6.2a2.2,2.2,0,1,1,0-4.39H25.48Z"/><path class="cls-3" d="M40.68,34.13V57.8a2.2,2.2,0,1,0,4.39,0V38.52Z"/><path class="cls-4" d="M51,12.91a11.7,11.7,0,0,0-15.88-.52L51.6,28.88A11.68,11.68,0,0,0,51,13Z"/><path class="cls-3" d="M41.52,24.27a1.48,1.48,0,0,1-1.79-1.09,1.48,1.48,0,1,1,2.88-.7A1.48,1.48,0,0,1,41.52,24.27Z"/><path class="cls-5" d="M30,45h-.31a1,1,0,1,0,0,2H30v.31a1,1,0,0,0,2,0V47h.31a1,1,0,0,0,0-2H32v-.31a1,1,0,0,0-2,0Z"/><path class="cls-5" d="M14,29.5h-.31a1,1,0,1,0,0,2H14v.31a1,1,0,1,0,2,0V31.5h.31a1,1,0,1,0,0-2H16v-.31a1,1,0,1,0-2,0Z"/><path class="cls-6" d="M50.14,30.39l-4.63-4.63a1,1,0,0,0-1.41,1.41l4.63,4.63a1,1,0,1,0,1.41-1.41Z"/><path class="cls-6" d="M38.24,18.48l-4.63-4.63a1,1,0,1,0-1.42,1.42l4.63,4.63a1,1,0,0,0,1.42-1.42Z"/><path class="cls-5" d="M9.88,12.05h-.3a1,1,0,0,0,0,2h.3v.31a1,1,0,0,0,2,0v-.31h.31a1,1,0,1,0,0-2h-.31v-.3a1,1,0,0,0-2,0Z"/></g></svg>