<?xml version="1.0" ?><svg viewBox="0 0 64 64" xmlns="http://www.w3.org/2000/svg"><defs><style>.cls-1{fill:#951dab;}.cls-2,.cls-4{fill:#f9f9f9;}.cls-2,.cls-7,.cls-8{fill-rule:evenodd;}.cls-3,.cls-8{fill:#767689;}.cls-5{fill:#6cc5ef;}.cls-6{fill:#e6e5e1;}.cls-7{fill:#fcc667;}</style></defs><g id="UFO"><path class="cls-1" d="M25.78,29.68H38.22S43.63,51,45,56.34a.94.94,0,0,1-.92,1.17H19.94a.92.92,0,0,1-.74-.36,1,1,0,0,1-.18-.81C20.37,51,25.78,29.68,25.78,29.68Z"/><path class="cls-2" d="M29.1,36.05l.79-6.24a1,1,0,1,0-2-.25l-.79,6.24a1,1,0,1,0,2,.25Zm6.6,6.34,1.58,12.49a1,1,0,1,0,2-.25L37.68,42.14a1,1,0,0,0-1.11-.87A1,1,0,0,0,35.7,42.39ZM26.37,57.64l1.15-9.09a1,1,0,1,0-2-.25l-1.15,9.09a1,1,0,1,0,2,.25Z"/><path class="cls-2" d="M33,47.4V39.8a1,1,0,0,0-2,0v7.6a1,1,0,1,0,2,0Z"/><path class="cls-3" d="M6.21,25.27H57.79a2.21,2.21,0,1,1,0,4.41H6.21a2.21,2.21,0,1,1,0-4.41Z"/><path class="cls-4" d="M56.4,25.27c0-1.76-2.59-3.36-6.81-4.53a7.56,7.56,0,0,1-4.65-4.89,13.62,13.62,0,0,0-25.88,0,7.56,7.56,0,0,1-4.65,4.89c-4.22,1.17-6.82,2.77-6.82,4.53Z"/><path class="cls-5" d="M32,10.82a8.29,8.29,0,0,0-8.21,7.7H40.26A8.29,8.29,0,0,0,32,10.82Z"/><path class="cls-6" d="M33.13,22.85A1.32,1.32,0,1,1,32.69,21,1.33,1.33,0,0,1,33.13,22.85Z"/><path class="cls-7" d="M8.12,44.92h-.3a1,1,0,0,0,0,2h.3v.31a1,1,0,0,0,2,0v-.31h.31a1,1,0,0,0,0-2h-.31v-.31a1,1,0,0,0-2,0Z"/><path class="cls-7" d="M50.75,38.5h-.3a1,1,0,0,0,0,2h.3v.31a1,1,0,0,0,2,0V40.5h.31a1,1,0,0,0,0-2h-.31v-.31a1,1,0,0,0-2,0Z"/><path class="cls-7" d="M16.12,36.48h-.31a1,1,0,0,0,0,2h.31v.3a1,1,0,0,0,2,0v-.3h.31a1,1,0,0,0,0-2h-.31v-.31a1,1,0,0,0-2,0Z"/><path class="cls-8" d="M27.42,21.16H21.59a1,1,0,0,0,0,2h5.83a1,1,0,0,0,0-2Z"/><path class="cls-8" d="M42.4,21.16H36.58a1,1,0,0,0,0,2H42.4a1,1,0,0,0,0-2Z"/><path class="cls-7" d="M49.75,11.25h-.3a1,1,0,0,0,0,2h.3v.31a1,1,0,1,0,2,0v-.31h.31a1,1,0,0,0,0-2h-.31v-.31a1,1,0,1,0-2,0Z"/></g></svg>