<svg id="visual" viewBox="0 0 900 600" width="900" height="600" xmlns="http://www.w3.org/2000/svg" xmlns:xlink="http://www.w3.org/1999/xlink" version="1.1"><path d="M0 348L30 344.3C60 340.7 120 333.3 180 324C240 314.7 300 303.3 360 318.3C420 333.3 480 374.7 540 372.5C600 370.3 660 324.7 720 322.5C780 320.3 840 361.7 870 382.3L900 403L900 601L870 601C840 601 780 601 720 601C660 601 600 601 540 601C480 601 420 601 360 601C300 601 240 601 180 601C120 601 60 601 30 601L0 601Z" fill="#091a2d" stroke-linecap="round" stroke-linejoin="miter"></path></svg>