<svg id="visual" viewBox="0 0 900 600" width="900" height="600" xmlns="http://www.w3.org/2000/svg" xmlns:xlink="http://www.w3.org/1999/xlink" version="1.1"><path d="M0 396L37.5 384C75 372 150 348 225 351.2C300 354.3 375 384.7 450 398.3C525 412 600 409 675 418C750 427 825 448 862.5 458.5L900 469L900 601L862.5 601C825 601 750 601 675 601C600 601 525 601 450 601C375 601 300 601 225 601C150 601 75 601 37.5 601L0 601Z" fill="#ffb452"></path><path d="M0 431L37.5 434C75 437 150 443 225 445.8C300 448.7 375 448.3 450 448C525 447.7 600 447.3 675 443.3C750 439.3 825 431.7 862.5 427.8L900 424L900 601L862.5 601C825 601 750 601 675 601C600 601 525 601 450 601C375 601 300 601 225 601C150 601 75 601 37.5 601L0 601Z" fill="#ef921a"></path></svg>