<svg id="visual" viewBox="0 0 900 600" width="900" height="600" xmlns="http://www.w3.org/2000/svg" xmlns:xlink="http://www.w3.org/1999/xlink" version="1.1"><g><g transform="translate(280 158)"><path d="M4.3 2.6C2.6 5.3 -3.7 5.5 -5.2 2.9C-6.6 0.2 -3.3 -5.3 -0.2 -5.4C3 -5.5 5.9 -0.2 4.3 2.6Z" fill="#fffef1"></path></g><g transform="translate(775 203)"><path d="M4.4 2.4C2.8 5.2 -3.2 5.3 -4.7 2.5C-6.2 -0.3 -3.1 -6 -0.1 -6.1C3 -6.1 5.9 -0.5 4.4 2.4Z" fill="#fffef1"></path></g><g transform="translate(114 396)"><path d="M5.7 3.4C4.2 6 -2.6 5.7 -4.4 3C-6.3 0.2 -3.1 -5 0.3 -4.8C3.6 -4.7 7.3 0.8 5.7 3.4Z" fill="#fffef1"></path></g><g transform="translate(431 36)"><path d="M4.9 3C3.2 5.8 -3.6 5.9 -5.3 3.1C-6.9 0.3 -3.5 -5.5 -0.1 -5.5C3.3 -5.5 6.7 0.1 4.9 3Z" fill="#fffef1"></path></g><g transform="translate(589 200)"><path d="M4.1 2.6C2.4 5.3 -3.9 5.6 -5.4 3.1C-6.8 0.6 -3.4 -4.8 -0.2 -4.9C2.9 -5.1 5.8 0 4.1 2.6Z" fill="#fffef1"></path></g><g transform="translate(805 191)"><path d="M5 3.1C3.1 6 -4 6.2 -5.7 3.3C-7.4 0.4 -3.7 -5.5 -0.1 -5.6C3.4 -5.7 6.8 0.1 5 3.1Z" fill="#fffef1"></path></g></g></svg>