<!--?xml version="1.0" standalone="no"?-->
              <svg id="sw-js-blob-svg" viewBox="0 0 100 100" xmlns="http://www.w3.org/2000/svg" version="1.1">
                    <defs> 
                        <linearGradient id="sw-gradient" x1="0" x2="1" y1="1" y2="0">
                            <stop id="stop1" stop-color="rgba(255, 212.924, 193.01, 1)" offset="0%"></stop>
                            <stop id="stop2" stop-color="rgba(251, 168, 31, 1)" offset="100%"></stop>
                        </linearGradient>
                    </defs>
                <path fill="url(#sw-gradient)" d="M19.9,-33.2C27,-30.4,34.7,-27.4,39,-21.9C43.4,-16.3,44.4,-8.2,44.2,-0.1C44.1,8,42.9,16.1,38.6,21.7C34.3,27.4,27,30.6,20,34.4C13.1,38.1,6.5,42.2,-0.3,42.7C-7,43.1,-14.1,39.8,-21.1,36.1C-28,32.4,-34.9,28.3,-39.2,22.2C-43.4,16.1,-44.9,8.1,-44.7,0.1C-44.5,-7.8,-42.5,-15.6,-38.5,-22C-34.4,-28.4,-28.3,-33.4,-21.5,-36.4C-14.8,-39.3,-7.4,-40.4,-0.5,-39.5C6.4,-38.7,12.8,-36,19.9,-33.2Z" width="100%" height="100%" transform="translate(50 50)" stroke-width="0" style="transition: all 0.3s ease 0s;" stroke="url(#sw-gradient)"></path>
              </svg>