<?xml version="1.0" encoding="iso-8859-1"?>
<!-- Generator: Adobe Illustrator 16.0.0, SVG Export Plug-In . SVG Version: 6.00 Build 0)  -->
<!DOCTYPE svg PUBLIC "-//W3C//DTD SVG 1.1//EN" "http://www.w3.org/Graphics/SVG/1.1/DTD/svg11.dtd">
<svg version="1.1" id="Capa_1" xmlns="http://www.w3.org/2000/svg" xmlns:xlink="http://www.w3.org/1999/xlink" x="0px" y="0px"
	 width="49.386px" height="49.387px" viewBox="0 0 49.386 49.387" style="enable-background:new 0 0 49.386 49.387;"
	 xml:space="preserve">
<g>
	<path d="M1.485,21.762l0.819,0.7c2.43,2.077,6.067,4.697,8.123,5.849c2.055,1.152,3.722,2.086,3.722,2.086l-2.048,4.066
		c-1.131,2.246-2.565,6.605-3.201,9.74l-0.118,0.583c-0.637,3.134,1.03,4.399,3.722,2.829c2.693-1.569,6.513-4.347,8.535-6.199
		c2.02-1.853,3.657-3.355,3.657-3.355l3.671,3.311c2.027,1.828,5.847,4.604,8.533,6.2s4.469,0.522,3.98-2.397
		c-0.487-2.921-1.946-7.412-3.26-10.032c-1.312-2.619-2.377-4.745-2.377-4.745l2.423-1.046c1.338-0.577,4.404-2.717,6.85-4.779
		l3.367-2.839c2.443-2.063,1.843-3.95-1.345-4.217l-3.664-0.308c-3.188-0.268-7.09-0.198-8.716,0.153
		C32.535,17.714,31.215,18,31.215,18l-0.539-3.261c-0.297-1.801-1.506-5.668-2.697-8.635l-1.122-2.792
		c-1.193-2.968-3.164-2.983-4.401-0.036l-1.203,2.864c-1.239,2.947-2.429,6.798-2.658,8.6C18.365,16.541,18.179,18,18.179,18
		l-4.697-0.411c-2.594-0.228-7.281-0.229-10.472-0.006l-0.15,0.011C-0.33,17.817-0.943,19.685,1.485,21.762z"/>
</g>
<g>
</g>
<g>
</g>
<g>
</g>
<g>
</g>
<g>
</g>
<g>
</g>
<g>
</g>
<g>
</g>
<g>
</g>
<g>
</g>
<g>
</g>
<g>
</g>
<g>
</g>
<g>
</g>
<g>
</g>
</svg>
