<svg id="visual" viewBox="0 0 900 600" width="900" height="600" xmlns="http://www.w3.org/2000/svg" xmlns:xlink="http://www.w3.org/1999/xlink" version="1.1"><g fill="#ffdb55"><path d="M0 -13.2L3 -4.1L12.6 -4.1L4.8 1.6L7.8 10.7L0 5L-7.8 10.7L-4.8 1.6L-12.6 -4.1L-3 -4.1Z" transform="translate(595 387)"></path><path d="M0 -0.9L0.2 -0.3L0.9 -0.3L0.3 0.1L0.6 0.8L0 0.4L-0.6 0.8L-0.3 0.1L-0.9 -0.3L-0.2 -0.3Z" transform="translate(708 43)"></path><path d="M0 -7.6L1.7 -2.3L7.2 -2.3L2.7 0.9L4.4 6.1L0 2.9L-4.4 6.1L-2.7 0.9L-7.2 -2.3L-1.7 -2.3Z" transform="translate(41 126)"></path><path d="M0 -8.5L1.9 -2.6L8.1 -2.6L3.1 1L5 6.9L0 3.2L-5 6.9L-3.1 1L-8.1 -2.6L-1.9 -2.6Z" transform="translate(20 527)"></path><path d="M0 -11.3L2.5 -3.5L10.8 -3.5L4.1 1.3L6.7 9.2L0 4.3L-6.7 9.2L-4.1 1.3L-10.8 -3.5L-2.5 -3.5Z" transform="translate(435 65)"></path><path d="M0 -11.3L2.5 -3.5L10.8 -3.5L4.1 1.3L6.7 9.2L0 4.3L-6.7 9.2L-4.1 1.3L-10.8 -3.5L-2.5 -3.5Z" transform="translate(713 248)"></path><path d="M0 -6.6L1.5 -2L6.3 -2L2.4 0.8L3.9 5.3L0 2.5L-3.9 5.3L-2.4 0.8L-6.3 -2L-1.5 -2Z" transform="translate(711 551)"></path><path d="M0 -9.4L2.1 -2.9L9 -2.9L3.4 1.1L5.5 7.6L0 3.6L-5.5 7.6L-3.4 1.1L-9 -2.9L-2.1 -2.9Z" transform="translate(350 534)"></path><path d="M0 -5.7L1.3 -1.7L5.4 -1.7L2.1 0.7L3.3 4.6L0 2.2L-3.3 4.6L-2.1 0.7L-5.4 -1.7L-1.3 -1.7Z" transform="translate(390 212)"></path><path d="M0 -8.5L1.9 -2.6L8.1 -2.6L3.1 1L5 6.9L0 3.2L-5 6.9L-3.1 1L-8.1 -2.6L-1.9 -2.6Z" transform="translate(823 429)"></path></g></svg>