<?xml version="1.0" standalone="no"?><svg xmlns:xlink="http://www.w3.org/1999/xlink" xmlns="http://www.w3.org/2000/svg" viewBox="0 0 1400 890.9054237288135" preserveAspectRatio="xMaxYMax slice"><g transform="scale(2.3728813559322033)"><rect x="0" y="0" width="590" height="375.45454545454544" fill="#ffffff"/><rect x="0" y="0" width="53.64" height="53.64" fill="#7903f0"/><polygon points="53.64,0 53.64,53.64 0,53.64" fill="#08030a"/><rect x="53.63636363636363" y="0" width="53.63636363636363" height="53.63636363636363" fill="#ffffff"/><rect x="53.64" y="0" width="26.82" height="26.82" fill="#7903f0"/><g transform="translate(53.64,0) scale(1.341) rotate(0)"><path d="M5 0H10L5 5L0 10V5L5 0Z" fill="#7903f0"/><path d="M20 15V20H15L20 15Z" fill="#7903f0"/><path d="M20 5V10L15 15L10 20H5L20 5Z" fill="#7903f0"/><path d="M15 0H20L5 15.0002L0 20.0002V15.0002L15 0Z" fill="#7903f0"/></g><rect x="80.45" y="0" width="26.82" height="26.82" fill="#08030a"/><polygon points="80.45,0 107.27000000000001,0 107.27000000000001,26.82" fill="#7903f0"/><rect x="53.64" y="26.82" width="26.82" height="26.82" fill="#08030a"/><g transform="translate(53.64,26.82) scale(1.341) rotate(0)"><path d="M5 0H10L5 5L0 10V5L5 0Z" fill="#7903f0"/><path d="M20 15V20H15L20 15Z" fill="#7903f0"/><path d="M20 5V10L15 15L10 20H5L20 5Z" fill="#7903f0"/><path d="M15 0H20L5 15.0002L0 20.0002V15.0002L15 0Z" fill="#7903f0"/></g><rect x="80.45" y="26.82" width="26.82" height="26.82" fill="#7903f0"/><rect x="80.45" y="26.82" width="26.82" height="26.82" fill="#08030a"/><rect x="107.27" y="0" width="53.64" height="53.64" fill="#08030a"/><polygon points="160.91,0 160.91,53.64 107.27,53.64" fill="#08030a"/><rect x="160.9090909090909" y="0" width="53.63636363636363" height="53.63636363636363" fill="#ffffff"/><rect x="160.91" y="0" width="26.82" height="26.82" fill="#7903f0"/><rect x="160.91" y="0" width="26.82" height="26.82" fill="#08030a"/><rect x="187.73" y="0" width="26.82" height="26.82" fill="#08030a"/><g transform="translate(187.73,0) scale(1.341) rotate(0)"><path d="M5 0H10L5 5L0 10V5L5 0Z" fill="#7903f0"/><path d="M20 15V20H15L20 15Z" fill="#7903f0"/><path d="M20 5V10L15 15L10 20H5L20 5Z" fill="#7903f0"/><path d="M15 0H20L5 15.0002L0 20.0002V15.0002L15 0Z" fill="#7903f0"/></g><rect x="160.91" y="26.82" width="26.82" height="26.82" fill="#08030a"/><path d="M 160.91 26.82 A 26.82 26.82 0 0 1  187.73 53.64 L 160.91 26.82 A 26.82 26.82 0 0 0 187.73 53.64" fill="#7903f0"/><rect x="187.73" y="26.82" width="26.82" height="26.82" fill="#7903f0"/><path d="M 187.73 26.82 A 26.82 26.82 0 0 1 214.54999999999998 53.64 L 187.73 53.64" fill="#7903f0"/><rect x="214.54545454545453" y="0" width="53.63636363636363" height="53.63636363636363" fill="#ffffff"/><rect x="214.55" y="0" width="26.82" height="26.82" fill="#7903f0"/><path d="M 214.55 26.82 A 26.82 26.82 0 0 1  241.37 0 L 214.55 26.82 A 26.82 26.82 0 0 0 241.37 0" fill="#08030a"/><rect x="241.36" y="0" width="26.82" height="26.82" fill="#08030a"/><rect x="241.36" y="0" width="26.82" height="26.82" fill="#08030a"/><rect x="214.55" y="26.82" width="26.82" height="26.82" fill="#7903f0"/><rect x="214.55" y="26.82" width="26.82" height="26.82" fill="#08030a"/><rect x="241.36" y="26.82" width="26.82" height="26.82" fill="#08030a"/><g transform="translate(241.36,26.82) scale(1.341) rotate(0)"><path d="M5 0H10L5 5L0 10V5L5 0Z" fill="#7903f0"/><path d="M20 15V20H15L20 15Z" fill="#7903f0"/><path d="M20 5V10L15 15L10 20H5L20 5Z" fill="#7903f0"/><path d="M15 0H20L5 15.0002L0 20.0002V15.0002L15 0Z" fill="#7903f0"/></g><rect x="268.18" y="0" width="53.64" height="53.64" fill="#08030a"/><path d="M 268.18 0 A 53.64 53.64 0 0 1  321.82 53.64 L 268.18 0 A 53.64 53.64 0 0 0 321.82 53.64" fill="#7903f0"/><rect x="321.8181818181818" y="0" width="53.63636363636363" height="53.63636363636363" fill="#ffffff"/><rect x="321.82" y="0" width="26.82" height="26.82" fill="#08030a"/><path d="M 321.82 26.82 A 26.82 26.82 0 0 1  348.64 0 L 348.64 26.82" fill="#08030a"/><rect x="348.64" y="0" width="26.82" height="26.82" fill="#7903f0"/><polygon points="348.64,0 375.46,0 348.64,26.82" fill="#7903f0"/><rect x="321.82" y="26.82" width="26.82" height="26.82" fill="#08030a"/><rect x="321.82" y="26.82" width="26.82" height="26.82" fill="#7903f0"/><rect x="348.64" y="26.82" width="26.82" height="26.82" fill="#7903f0"/><rect x="348.64" y="26.82" width="26.82" height="26.82" fill="#08030a"/><rect x="375.45454545454544" y="0" width="53.63636363636363" height="53.63636363636363" fill="#ffffff"/><rect x="375.45" y="0" width="26.82" height="26.82" fill="#08030a"/><g transform="translate(375.45,0) scale(1.341) rotate(0)"><path d="M5 0H10L5 5L0 10V5L5 0Z" fill="#08030a"/><path d="M20 15V20H15L20 15Z" fill="#08030a"/><path d="M20 5V10L15 15L10 20H5L20 5Z" fill="#08030a"/><path d="M15 0H20L5 15.0002L0 20.0002V15.0002L15 0Z" fill="#08030a"/></g><rect x="402.27" y="0" width="26.82" height="26.82" fill="#08030a"/><g transform="translate(402.27,0) scale(1.341) rotate(0)"><path d="M5 0H10L5 5L0 10V5L5 0Z" fill="#7903f0"/><path d="M20 15V20H15L20 15Z" fill="#7903f0"/><path d="M20 5V10L15 15L10 20H5L20 5Z" fill="#7903f0"/><path d="M15 0H20L5 15.0002L0 20.0002V15.0002L15 0Z" fill="#7903f0"/></g><rect x="375.45" y="26.82" width="26.82" height="26.82" fill="#08030a"/><polygon points="375.45,26.82 402.27,26.82 402.27,53.64" fill="#08030a"/><rect x="402.27" y="26.82" width="26.82" height="26.82" fill="#08030a"/><g transform="translate(402.27,26.82) scale(1.341) rotate(0)"><path d="M5 0H10L5 5L0 10V5L5 0Z" fill="#7903f0"/><path d="M20 15V20H15L20 15Z" fill="#7903f0"/><path d="M20 5V10L15 15L10 20H5L20 5Z" fill="#7903f0"/><path d="M15 0H20L5 15.0002L0 20.0002V15.0002L15 0Z" fill="#7903f0"/></g><rect x="429.09" y="0" width="53.64" height="53.64" fill="#7903f0"/><rect x="429.09" y="0" width="53.64" height="53.64" fill="#7903f0"/><rect x="482.73" y="0" width="53.64" height="53.64" fill="#7903f0"/><g transform="translate(482.73,0) scale(2.682) rotate(0)"><path d="M5 0H10L5 5L0 10V5L5 0Z" fill="#7903f0"/><path d="M20 15V20H15L20 15Z" fill="#7903f0"/><path d="M20 5V10L15 15L10 20H5L20 5Z" fill="#7903f0"/><path d="M15 0H20L5 15.0002L0 20.0002V15.0002L15 0Z" fill="#7903f0"/></g><rect x="536.3636363636364" y="0" width="53.63636363636363" height="53.63636363636363" fill="#ffffff"/><rect x="536.36" y="0" width="26.82" height="26.82" fill="#08030a"/><polygon points="536.36,0 563.1800000000001,0 536.36,26.82" fill="#08030a"/><rect x="563.18" y="0" width="26.82" height="26.82" fill="#08030a"/><g transform="translate(563.18,0) scale(1.341) rotate(0)"><path d="M5 0H10L5 5L0 10V5L5 0Z" fill="#08030a"/><path d="M20 15V20H15L20 15Z" fill="#08030a"/><path d="M20 5V10L15 15L10 20H5L20 5Z" fill="#08030a"/><path d="M15 0H20L5 15.0002L0 20.0002V15.0002L15 0Z" fill="#08030a"/></g><rect x="536.36" y="26.82" width="26.82" height="26.82" fill="#08030a"/><g transform="translate(536.36,26.82) scale(1.341) rotate(0)"><path d="M5 0H10L5 5L0 10V5L5 0Z" fill="#7903f0"/><path d="M20 15V20H15L20 15Z" fill="#7903f0"/><path d="M20 5V10L15 15L10 20H5L20 5Z" fill="#7903f0"/><path d="M15 0H20L5 15.0002L0 20.0002V15.0002L15 0Z" fill="#7903f0"/></g><rect x="563.18" y="26.82" width="26.82" height="26.82" fill="#08030a"/><rect x="563.18" y="26.82" width="26.82" height="26.82" fill="#7903f0"/><rect x="0" y="53.64" width="53.64" height="53.64" fill="#08030a"/><path d="M 0 107.28 A 53.64 53.64 0 0 1  53.64 53.64 L 0 107.28 A 53.64 53.64 0 0 0 53.64 53.64" fill="#7903f0"/><rect x="53.63636363636363" y="53.63636363636363" width="53.63636363636363" height="53.63636363636363" fill="#ffffff"/><rect x="53.64" y="53.64" width="26.82" height="26.82" fill="#7903f0"/><g transform="translate(53.64,53.64) scale(1.341) rotate(0)"><path d="M5 0H10L5 5L0 10V5L5 0Z" fill="#7903f0"/><path d="M20 15V20H15L20 15Z" fill="#7903f0"/><path d="M20 5V10L15 15L10 20H5L20 5Z" fill="#7903f0"/><path d="M15 0H20L5 15.0002L0 20.0002V15.0002L15 0Z" fill="#7903f0"/></g><rect x="80.45" y="53.64" width="26.82" height="26.82" fill="#08030a"/><g transform="translate(80.45,53.64) scale(1.341) rotate(0)"><path d="M5 0H10L5 5L0 10V5L5 0Z" fill="#08030a"/><path d="M20 15V20H15L20 15Z" fill="#08030a"/><path d="M20 5V10L15 15L10 20H5L20 5Z" fill="#08030a"/><path d="M15 0H20L5 15.0002L0 20.0002V15.0002L15 0Z" fill="#08030a"/></g><rect x="53.64" y="80.45" width="26.82" height="26.82" fill="#7903f0"/><path d="M 53.64 80.45 A 26.82 26.82 0 0 0 80.46000000000001 107.27000000000001 L 80.46000000000001 80.45" fill="#08030a"/><rect x="80.45" y="80.45" width="26.82" height="26.82" fill="#08030a"/><g transform="translate(80.45,80.45) scale(1.341) rotate(0)"><path d="M5 0H10L5 5L0 10V5L5 0Z" fill="#7903f0"/><path d="M20 15V20H15L20 15Z" fill="#7903f0"/><path d="M20 5V10L15 15L10 20H5L20 5Z" fill="#7903f0"/><path d="M15 0H20L5 15.0002L0 20.0002V15.0002L15 0Z" fill="#7903f0"/></g><rect x="107.27272727272727" y="53.63636363636363" width="53.63636363636363" height="53.63636363636363" fill="#ffffff"/><rect x="107.27" y="53.64" width="26.82" height="26.82" fill="#08030a"/><polygon points="107.27,53.64 134.09,53.64 107.27,80.46000000000001" fill="#7903f0"/><rect x="134.09" y="53.64" width="26.82" height="26.82" fill="#08030a"/><path d="M 134.09 53.64 A 26.82 26.82 0 0 0 160.91 80.46000000000001 L 160.91 53.64" fill="#7903f0"/><rect x="107.27" y="80.45" width="26.82" height="26.82" fill="#7903f0"/><g transform="translate(107.27,80.45) scale(1.341) rotate(0)"><path d="M5 0H10L5 5L0 10V5L5 0Z" fill="#7903f0"/><path d="M20 15V20H15L20 15Z" fill="#7903f0"/><path d="M20 5V10L15 15L10 20H5L20 5Z" fill="#7903f0"/><path d="M15 0H20L5 15.0002L0 20.0002V15.0002L15 0Z" fill="#7903f0"/></g><rect x="134.09" y="80.45" width="26.82" height="26.82" fill="#7903f0"/><g transform="translate(134.09,80.45) scale(1.341) rotate(0)"><path d="M5 0H10L5 5L0 10V5L5 0Z" fill="#7903f0"/><path d="M20 15V20H15L20 15Z" fill="#7903f0"/><path d="M20 5V10L15 15L10 20H5L20 5Z" fill="#7903f0"/><path d="M15 0H20L5 15.0002L0 20.0002V15.0002L15 0Z" fill="#7903f0"/></g><rect x="160.9090909090909" y="53.63636363636363" width="53.63636363636363" height="53.63636363636363" fill="#ffffff"/><rect x="160.91" y="53.64" width="26.82" height="26.82" fill="#7903f0"/><rect x="160.91" y="53.64" width="26.82" height="26.82" fill="#7903f0"/><rect x="187.73" y="53.64" width="26.82" height="26.82" fill="#7903f0"/><g transform="translate(187.73,53.64) scale(1.341) rotate(0)"><path d="M5 0H10L5 5L0 10V5L5 0Z" fill="#08030a"/><path d="M20 15V20H15L20 15Z" fill="#08030a"/><path d="M20 5V10L15 15L10 20H5L20 5Z" fill="#08030a"/><path d="M15 0H20L5 15.0002L0 20.0002V15.0002L15 0Z" fill="#08030a"/></g><rect x="160.91" y="80.45" width="26.82" height="26.82" fill="#7903f0"/><rect x="160.91" y="80.45" width="26.82" height="26.82" fill="#7903f0"/><rect x="187.73" y="80.45" width="26.82" height="26.82" fill="#08030a"/><rect x="187.73" y="80.45" width="26.82" height="26.82" fill="#08030a"/><rect x="214.54545454545453" y="53.63636363636363" width="53.63636363636363" height="53.63636363636363" fill="#ffffff"/><rect x="214.55" y="53.64" width="26.82" height="26.82" fill="#7903f0"/><polygon points="214.55,53.64 241.37,53.64 214.55,80.46000000000001" fill="#7903f0"/><rect x="241.36" y="53.64" width="26.82" height="26.82" fill="#08030a"/><rect x="241.36" y="53.64" width="26.82" height="26.82" fill="#08030a"/><rect x="214.55" y="80.45" width="26.82" height="26.82" fill="#7903f0"/><rect x="214.55" y="80.45" width="26.82" height="26.82" fill="#08030a"/><rect x="241.36" y="80.45" width="26.82" height="26.82" fill="#08030a"/><path d="M 241.36 107.27000000000001 A 26.82 26.82 0 0 0 268.18 80.45 L 241.36 80.45" fill="#08030a"/><rect x="268.18" y="53.64" width="53.64" height="53.64" fill="#08030a"/><path d="M 268.18 53.64 A 53.64 53.64 0 0 0 321.82 107.28 L 321.82 53.64" fill="#08030a"/><rect x="321.82" y="53.64" width="53.64" height="53.64" fill="#08030a"/><path d="M 321.82 107.28 A 53.64 53.64 0 0 1  375.46 53.64 L 321.82 107.28 A 53.64 53.64 0 0 0 375.46 53.64" fill="#7903f0"/><rect x="375.45" y="53.64" width="53.64" height="53.64" fill="#7903f0"/><g transform="translate(375.45,53.64) scale(2.682) rotate(0)"><path d="M5 0H10L5 5L0 10V5L5 0Z" fill="#7903f0"/><path d="M20 15V20H15L20 15Z" fill="#7903f0"/><path d="M20 5V10L15 15L10 20H5L20 5Z" fill="#7903f0"/><path d="M15 0H20L5 15.0002L0 20.0002V15.0002L15 0Z" fill="#7903f0"/></g><rect x="429.09" y="53.64" width="53.64" height="53.64" fill="#7903f0"/><rect x="429.09" y="53.64" width="53.64" height="53.64" fill="#7903f0"/><rect x="482.7272727272727" y="53.63636363636363" width="53.63636363636363" height="53.63636363636363" fill="#ffffff"/><rect x="482.73" y="53.64" width="26.82" height="26.82" fill="#7903f0"/><path d="M 482.73 53.64 A 26.82 26.82 0 0 0 509.55 80.46000000000001 L 509.55 53.64" fill="#7903f0"/><rect x="509.55" y="53.64" width="26.82" height="26.82" fill="#08030a"/><polygon points="536.37,53.64 536.37,80.46000000000001 509.55,80.46000000000001" fill="#7903f0"/><rect x="482.73" y="80.45" width="26.82" height="26.82" fill="#08030a"/><g transform="translate(482.73,80.45) scale(1.341) rotate(0)"><path d="M5 0H10L5 5L0 10V5L5 0Z" fill="#08030a"/><path d="M20 15V20H15L20 15Z" fill="#08030a"/><path d="M20 5V10L15 15L10 20H5L20 5Z" fill="#08030a"/><path d="M15 0H20L5 15.0002L0 20.0002V15.0002L15 0Z" fill="#08030a"/></g><rect x="509.55" y="80.45" width="26.82" height="26.82" fill="#7903f0"/><polygon points="536.37,80.45 536.37,107.27000000000001 509.55,107.27000000000001" fill="#7903f0"/><rect x="536.3636363636364" y="53.63636363636363" width="53.63636363636363" height="53.63636363636363" fill="#ffffff"/><rect x="536.36" y="53.64" width="26.82" height="26.82" fill="#7903f0"/><rect x="536.36" y="53.64" width="26.82" height="26.82" fill="#08030a"/><rect x="563.18" y="53.64" width="26.82" height="26.82" fill="#08030a"/><g transform="translate(563.18,53.64) scale(1.341) rotate(0)"><path d="M5 0H10L5 5L0 10V5L5 0Z" fill="#7903f0"/><path d="M20 15V20H15L20 15Z" fill="#7903f0"/><path d="M20 5V10L15 15L10 20H5L20 5Z" fill="#7903f0"/><path d="M15 0H20L5 15.0002L0 20.0002V15.0002L15 0Z" fill="#7903f0"/></g><rect x="536.36" y="80.45" width="26.82" height="26.82" fill="#08030a"/><path d="M 536.36 107.27000000000001 A 26.82 26.82 0 0 0 563.1800000000001 80.45 L 536.36 80.45" fill="#08030a"/><rect x="563.18" y="80.45" width="26.82" height="26.82" fill="#08030a"/><polygon points="563.18,80.45 590,80.45 563.18,107.27000000000001" fill="#08030a"/><rect x="0" y="107.27272727272727" width="53.63636363636363" height="53.63636363636363" fill="#ffffff"/><rect x="0" y="107.27" width="26.82" height="26.82" fill="#7903f0"/><rect x="0" y="107.27" width="26.82" height="26.82" fill="#08030a"/><rect x="26.82" y="107.27" width="26.82" height="26.82" fill="#7903f0"/><path d="M 26.82 107.27 A 26.82 26.82 0 0 0 53.64 134.09 L 53.64 107.27" fill="#08030a"/><rect x="0" y="134.09" width="26.82" height="26.82" fill="#08030a"/><polygon points="0,134.09 26.82,134.09 0,160.91" fill="#7903f0"/><rect x="26.82" y="134.09" width="26.82" height="26.82" fill="#7903f0"/><path d="M 26.82 160.91 A 26.82 26.82 0 0 1  53.64 134.09 L 53.64 160.91" fill="#08030a"/><rect x="53.64" y="107.27" width="53.64" height="53.64" fill="#7903f0"/><polygon points="53.64,107.27 107.28,107.27 53.64,160.91" fill="#7903f0"/><rect x="107.27272727272727" y="107.27272727272727" width="53.63636363636363" height="53.63636363636363" fill="#ffffff"/><rect x="107.27" y="107.27" width="26.82" height="26.82" fill="#7903f0"/><polygon points="107.27,107.27 134.09,107.27 134.09,134.09" fill="#08030a"/><rect x="134.09" y="107.27" width="26.82" height="26.82" fill="#08030a"/><rect x="134.09" y="107.27" width="26.82" height="26.82" fill="#08030a"/><rect x="107.27" y="134.09" width="26.82" height="26.82" fill="#08030a"/><rect x="107.27" y="134.09" width="26.82" height="26.82" fill="#7903f0"/><rect x="134.09" y="134.09" width="26.82" height="26.82" fill="#7903f0"/><polygon points="134.09,134.09 160.91,160.91 134.09,160.91" fill="#7903f0"/><rect x="160.91" y="107.27" width="53.64" height="53.64" fill="#7903f0"/><rect x="160.91" y="107.27" width="53.64" height="53.64" fill="#7903f0"/><rect x="214.55" y="107.27" width="53.64" height="53.64" fill="#08030a"/><g transform="translate(214.55,107.27) scale(2.682) rotate(0)"><path d="M5 0H10L5 5L0 10V5L5 0Z" fill="#08030a"/><path d="M20 15V20H15L20 15Z" fill="#08030a"/><path d="M20 5V10L15 15L10 20H5L20 5Z" fill="#08030a"/><path d="M15 0H20L5 15.0002L0 20.0002V15.0002L15 0Z" fill="#08030a"/></g><rect x="268.18" y="107.27" width="53.64" height="53.64" fill="#08030a"/><path d="M 268.18 107.27 A 53.64 53.64 0 0 0 321.82 160.91 L 321.82 107.27" fill="#08030a"/><rect x="321.8181818181818" y="107.27272727272727" width="53.63636363636363" height="53.63636363636363" fill="#ffffff"/><rect x="321.82" y="107.27" width="26.82" height="26.82" fill="#7903f0"/><rect x="321.82" y="107.27" width="26.82" height="26.82" fill="#7903f0"/><rect x="348.64" y="107.27" width="26.82" height="26.82" fill="#08030a"/><polygon points="348.64,107.27 375.46,107.27 375.46,134.09" fill="#08030a"/><rect x="321.82" y="134.09" width="26.82" height="26.82" fill="#7903f0"/><polygon points="321.82,134.09 348.64,160.91 321.82,160.91" fill="#7903f0"/><rect x="348.64" y="134.09" width="26.82" height="26.82" fill="#08030a"/><g transform="translate(348.64,134.09) scale(1.341) rotate(0)"><path d="M5 0H10L5 5L0 10V5L5 0Z" fill="#7903f0"/><path d="M20 15V20H15L20 15Z" fill="#7903f0"/><path d="M20 5V10L15 15L10 20H5L20 5Z" fill="#7903f0"/><path d="M15 0H20L5 15.0002L0 20.0002V15.0002L15 0Z" fill="#7903f0"/></g><rect x="375.45454545454544" y="107.27272727272727" width="53.63636363636363" height="53.63636363636363" fill="#ffffff"/><rect x="375.45" y="107.27" width="26.82" height="26.82" fill="#7903f0"/><path d="M 375.45 107.27 A 26.82 26.82 0 0 1  402.27 134.09 L 375.45 107.27 A 26.82 26.82 0 0 0 402.27 134.09" fill="#08030a"/><rect x="402.27" y="107.27" width="26.82" height="26.82" fill="#08030a"/><path d="M 402.27 134.09 A 26.82 26.82 0 0 1  429.09 107.27 L 429.09 134.09" fill="#08030a"/><rect x="375.45" y="134.09" width="26.82" height="26.82" fill="#08030a"/><g transform="translate(375.45,134.09) scale(1.341) rotate(0)"><path d="M5 0H10L5 5L0 10V5L5 0Z" fill="#7903f0"/><path d="M20 15V20H15L20 15Z" fill="#7903f0"/><path d="M20 5V10L15 15L10 20H5L20 5Z" fill="#7903f0"/><path d="M15 0H20L5 15.0002L0 20.0002V15.0002L15 0Z" fill="#7903f0"/></g><rect x="402.27" y="134.09" width="26.82" height="26.82" fill="#08030a"/><polygon points="402.27,134.09 429.09,160.91 402.27,160.91" fill="#7903f0"/><rect x="429.09" y="107.27" width="53.64" height="53.64" fill="#7903f0"/><polygon points="429.09,107.27 482.72999999999996,107.27 482.72999999999996,160.91" fill="#08030a"/><rect x="482.7272727272727" y="107.27272727272727" width="53.63636363636363" height="53.63636363636363" fill="#ffffff"/><rect x="482.73" y="107.27" width="26.82" height="26.82" fill="#7903f0"/><g transform="translate(482.73,107.27) scale(1.341) rotate(0)"><path d="M5 0H10L5 5L0 10V5L5 0Z" fill="#08030a"/><path d="M20 15V20H15L20 15Z" fill="#08030a"/><path d="M20 5V10L15 15L10 20H5L20 5Z" fill="#08030a"/><path d="M15 0H20L5 15.0002L0 20.0002V15.0002L15 0Z" fill="#08030a"/></g><rect x="509.55" y="107.27" width="26.82" height="26.82" fill="#08030a"/><rect x="509.55" y="107.27" width="26.82" height="26.82" fill="#08030a"/><rect x="482.73" y="134.09" width="26.82" height="26.82" fill="#08030a"/><path d="M 482.73 160.91 A 26.82 26.82 0 0 0 509.55 134.09 L 482.73 134.09" fill="#08030a"/><rect x="509.55" y="134.09" width="26.82" height="26.82" fill="#7903f0"/><g transform="translate(509.55,134.09) scale(1.341) rotate(0)"><path d="M5 0H10L5 5L0 10V5L5 0Z" fill="#7903f0"/><path d="M20 15V20H15L20 15Z" fill="#7903f0"/><path d="M20 5V10L15 15L10 20H5L20 5Z" fill="#7903f0"/><path d="M15 0H20L5 15.0002L0 20.0002V15.0002L15 0Z" fill="#7903f0"/></g><rect x="536.3636363636364" y="107.27272727272727" width="53.63636363636363" height="53.63636363636363" fill="#ffffff"/><rect x="536.36" y="107.27" width="26.82" height="26.82" fill="#7903f0"/><g transform="translate(536.36,107.27) scale(1.341) rotate(0)"><path d="M5 0H10L5 5L0 10V5L5 0Z" fill="#7903f0"/><path d="M20 15V20H15L20 15Z" fill="#7903f0"/><path d="M20 5V10L15 15L10 20H5L20 5Z" fill="#7903f0"/><path d="M15 0H20L5 15.0002L0 20.0002V15.0002L15 0Z" fill="#7903f0"/></g><rect x="563.18" y="107.27" width="26.82" height="26.82" fill="#7903f0"/><path d="M 563.18 107.27 A 26.82 26.82 0 0 0 590 134.09 L 590 107.27" fill="#7903f0"/><rect x="536.36" y="134.09" width="26.82" height="26.82" fill="#08030a"/><path d="M 536.36 160.91 A 26.82 26.82 0 0 1  563.1800000000001 134.09 L 536.36 160.91 A 26.82 26.82 0 0 0 563.1800000000001 134.09" fill="#08030a"/><rect x="563.18" y="134.09" width="26.82" height="26.82" fill="#7903f0"/><g transform="translate(563.18,134.09) scale(1.341) rotate(0)"><path d="M5 0H10L5 5L0 10V5L5 0Z" fill="#08030a"/><path d="M20 15V20H15L20 15Z" fill="#08030a"/><path d="M20 5V10L15 15L10 20H5L20 5Z" fill="#08030a"/><path d="M15 0H20L5 15.0002L0 20.0002V15.0002L15 0Z" fill="#08030a"/></g><rect x="0" y="160.9090909090909" width="53.63636363636363" height="53.63636363636363" fill="#ffffff"/><rect x="0" y="160.91" width="26.82" height="26.82" fill="#08030a"/><path d="M 0 160.91 A 26.82 26.82 0 0 0 26.82 187.73 L 26.82 160.91" fill="#08030a"/><rect x="26.82" y="160.91" width="26.82" height="26.82" fill="#08030a"/><g transform="translate(26.82,160.91) scale(1.341) rotate(0)"><path d="M5 0H10L5 5L0 10V5L5 0Z" fill="#08030a"/><path d="M20 15V20H15L20 15Z" fill="#08030a"/><path d="M20 5V10L15 15L10 20H5L20 5Z" fill="#08030a"/><path d="M15 0H20L5 15.0002L0 20.0002V15.0002L15 0Z" fill="#08030a"/></g><rect x="0" y="187.73" width="26.82" height="26.82" fill="#08030a"/><rect x="0" y="187.73" width="26.82" height="26.82" fill="#7903f0"/><rect x="26.82" y="187.73" width="26.82" height="26.82" fill="#08030a"/><rect x="26.82" y="187.73" width="26.82" height="26.82" fill="#7903f0"/><rect x="53.64" y="160.91" width="53.64" height="53.64" fill="#08030a"/><path d="M 53.64 160.91 A 53.64 53.64 0 0 1  107.28 214.55 L 53.64 160.91 A 53.64 53.64 0 0 0 107.28 214.55" fill="#08030a"/><rect x="107.27272727272727" y="160.9090909090909" width="53.63636363636363" height="53.63636363636363" fill="#ffffff"/><rect x="107.27" y="160.91" width="26.82" height="26.82" fill="#7903f0"/><g transform="translate(107.27,160.91) scale(1.341) rotate(0)"><path d="M5 0H10L5 5L0 10V5L5 0Z" fill="#7903f0"/><path d="M20 15V20H15L20 15Z" fill="#7903f0"/><path d="M20 5V10L15 15L10 20H5L20 5Z" fill="#7903f0"/><path d="M15 0H20L5 15.0002L0 20.0002V15.0002L15 0Z" fill="#7903f0"/></g><rect x="134.09" y="160.91" width="26.82" height="26.82" fill="#7903f0"/><path d="M 134.09 160.91 A 26.82 26.82 0 0 1 160.91 187.73 L 134.09 187.73" fill="#08030a"/><rect x="107.27" y="187.73" width="26.82" height="26.82" fill="#08030a"/><polygon points="107.27,187.73 134.09,214.54999999999998 107.27,214.54999999999998" fill="#7903f0"/><rect x="134.09" y="187.73" width="26.82" height="26.82" fill="#7903f0"/><rect x="134.09" y="187.73" width="26.82" height="26.82" fill="#7903f0"/><rect x="160.91" y="160.91" width="53.64" height="53.64" fill="#08030a"/><polygon points="214.55,160.91 214.55,214.55 160.91,214.55" fill="#08030a"/><rect x="214.55" y="160.91" width="53.64" height="53.64" fill="#7903f0"/><rect x="214.55" y="160.91" width="53.64" height="53.64" fill="#08030a"/><rect x="268.1818181818182" y="160.9090909090909" width="53.63636363636363" height="53.63636363636363" fill="#ffffff"/><rect x="268.18" y="160.91" width="26.82" height="26.82" fill="#7903f0"/><g transform="translate(268.18,160.91) scale(1.341) rotate(0)"><path d="M5 0H10L5 5L0 10V5L5 0Z" fill="#7903f0"/><path d="M20 15V20H15L20 15Z" fill="#7903f0"/><path d="M20 5V10L15 15L10 20H5L20 5Z" fill="#7903f0"/><path d="M15 0H20L5 15.0002L0 20.0002V15.0002L15 0Z" fill="#7903f0"/></g><rect x="295" y="160.91" width="26.82" height="26.82" fill="#08030a"/><rect x="295" y="160.91" width="26.82" height="26.82" fill="#08030a"/><rect x="268.18" y="187.73" width="26.82" height="26.82" fill="#7903f0"/><rect x="268.18" y="187.73" width="26.82" height="26.82" fill="#08030a"/><rect x="295" y="187.73" width="26.82" height="26.82" fill="#7903f0"/><g transform="translate(295,187.73) scale(1.341) rotate(0)"><path d="M5 0H10L5 5L0 10V5L5 0Z" fill="#7903f0"/><path d="M20 15V20H15L20 15Z" fill="#7903f0"/><path d="M20 5V10L15 15L10 20H5L20 5Z" fill="#7903f0"/><path d="M15 0H20L5 15.0002L0 20.0002V15.0002L15 0Z" fill="#7903f0"/></g><rect x="321.82" y="160.91" width="53.64" height="53.64" fill="#7903f0"/><rect x="321.82" y="160.91" width="53.64" height="53.64" fill="#08030a"/><rect x="375.45" y="160.91" width="53.64" height="53.64" fill="#08030a"/><polygon points="375.45,160.91 429.09,214.55 375.45,214.55" fill="#08030a"/><rect x="429.09" y="160.91" width="53.64" height="53.64" fill="#08030a"/><path d="M 429.09 160.91 A 53.64 53.64 0 0 1  482.72999999999996 214.55 L 429.09 160.91 A 53.64 53.64 0 0 0 482.72999999999996 214.55" fill="#7903f0"/><rect x="482.7272727272727" y="160.9090909090909" width="53.63636363636363" height="53.63636363636363" fill="#ffffff"/><rect x="482.73" y="160.91" width="26.82" height="26.82" fill="#08030a"/><polygon points="509.55,160.91 509.55,187.73 482.73,187.73" fill="#7903f0"/><rect x="509.55" y="160.91" width="26.82" height="26.82" fill="#7903f0"/><path d="M 509.55 187.73 A 26.82 26.82 0 0 1  536.37 160.91 L 509.55 187.73 A 26.82 26.82 0 0 0 536.37 160.91" fill="#08030a"/><rect x="482.73" y="187.73" width="26.82" height="26.82" fill="#08030a"/><polygon points="482.73,187.73 509.55,187.73 482.73,214.54999999999998" fill="#08030a"/><rect x="509.55" y="187.73" width="26.82" height="26.82" fill="#7903f0"/><polygon points="536.37,187.73 536.37,214.54999999999998 509.55,214.54999999999998" fill="#7903f0"/><rect x="536.36" y="160.91" width="53.64" height="53.64" fill="#08030a"/><g transform="translate(536.36,160.91) scale(2.682) rotate(0)"><path d="M5 0H10L5 5L0 10V5L5 0Z" fill="#08030a"/><path d="M20 15V20H15L20 15Z" fill="#08030a"/><path d="M20 5V10L15 15L10 20H5L20 5Z" fill="#08030a"/><path d="M15 0H20L5 15.0002L0 20.0002V15.0002L15 0Z" fill="#08030a"/></g><rect x="0" y="214.55" width="53.64" height="53.64" fill="#7903f0"/><rect x="0" y="214.55" width="53.64" height="53.64" fill="#08030a"/><rect x="53.63636363636363" y="214.54545454545453" width="53.63636363636363" height="53.63636363636363" fill="#ffffff"/><rect x="53.64" y="214.55" width="26.82" height="26.82" fill="#08030a"/><rect x="53.64" y="214.55" width="26.82" height="26.82" fill="#08030a"/><rect x="80.45" y="214.55" width="26.82" height="26.82" fill="#08030a"/><g transform="translate(80.45,214.55) scale(1.341) rotate(0)"><path d="M5 0H10L5 5L0 10V5L5 0Z" fill="#7903f0"/><path d="M20 15V20H15L20 15Z" fill="#7903f0"/><path d="M20 5V10L15 15L10 20H5L20 5Z" fill="#7903f0"/><path d="M15 0H20L5 15.0002L0 20.0002V15.0002L15 0Z" fill="#7903f0"/></g><rect x="53.64" y="241.36" width="26.82" height="26.82" fill="#08030a"/><rect x="53.64" y="241.36" width="26.82" height="26.82" fill="#08030a"/><rect x="80.45" y="241.36" width="26.82" height="26.82" fill="#7903f0"/><polygon points="80.45,241.36 107.27000000000001,241.36 107.27000000000001,268.18" fill="#7903f0"/><rect x="107.27272727272727" y="214.54545454545453" width="53.63636363636363" height="53.63636363636363" fill="#ffffff"/><rect x="107.27" y="214.55" width="26.82" height="26.82" fill="#08030a"/><path d="M 107.27 241.37 A 26.82 26.82 0 0 1  134.09 214.55 L 107.27 241.37 A 26.82 26.82 0 0 0 134.09 214.55" fill="#08030a"/><rect x="134.09" y="214.55" width="26.82" height="26.82" fill="#08030a"/><path d="M 134.09 241.37 A 26.82 26.82 0 0 1  160.91 214.55 L 134.09 241.37 A 26.82 26.82 0 0 0 160.91 214.55" fill="#7903f0"/><rect x="107.27" y="241.36" width="26.82" height="26.82" fill="#7903f0"/><g transform="translate(107.27,241.36) scale(1.341) rotate(0)"><path d="M5 0H10L5 5L0 10V5L5 0Z" fill="#7903f0"/><path d="M20 15V20H15L20 15Z" fill="#7903f0"/><path d="M20 5V10L15 15L10 20H5L20 5Z" fill="#7903f0"/><path d="M15 0H20L5 15.0002L0 20.0002V15.0002L15 0Z" fill="#7903f0"/></g><rect x="134.09" y="241.36" width="26.82" height="26.82" fill="#08030a"/><path d="M 134.09 268.18 A 26.82 26.82 0 0 0 160.91 241.36 L 134.09 241.36" fill="#08030a"/><rect x="160.91" y="214.55" width="53.64" height="53.64" fill="#08030a"/><rect x="160.91" y="214.55" width="53.64" height="53.64" fill="#08030a"/><rect x="214.55" y="214.55" width="53.64" height="53.64" fill="#7903f0"/><g transform="translate(214.55,214.55) scale(2.682) rotate(0)"><path d="M5 0H10L5 5L0 10V5L5 0Z" fill="#7903f0"/><path d="M20 15V20H15L20 15Z" fill="#7903f0"/><path d="M20 5V10L15 15L10 20H5L20 5Z" fill="#7903f0"/><path d="M15 0H20L5 15.0002L0 20.0002V15.0002L15 0Z" fill="#7903f0"/></g><rect x="268.18" y="214.55" width="53.64" height="53.64" fill="#08030a"/><g transform="translate(268.18,214.55) scale(2.682) rotate(0)"><path d="M5 0H10L5 5L0 10V5L5 0Z" fill="#08030a"/><path d="M20 15V20H15L20 15Z" fill="#08030a"/><path d="M20 5V10L15 15L10 20H5L20 5Z" fill="#08030a"/><path d="M15 0H20L5 15.0002L0 20.0002V15.0002L15 0Z" fill="#08030a"/></g><rect x="321.82" y="214.55" width="53.64" height="53.64" fill="#08030a"/><polygon points="321.82,214.55 375.46,268.19 321.82,268.19" fill="#08030a"/><rect x="375.45" y="214.55" width="53.64" height="53.64" fill="#08030a"/><path d="M 375.45 214.55 A 53.64 53.64 0 0 0 429.09 268.19 L 429.09 214.55" fill="#7903f0"/><rect x="429.09090909090907" y="214.54545454545453" width="53.63636363636363" height="53.63636363636363" fill="#ffffff"/><rect x="429.09" y="214.55" width="26.82" height="26.82" fill="#7903f0"/><polygon points="429.09,214.55 455.90999999999997,214.55 455.90999999999997,241.37" fill="#08030a"/><rect x="455.91" y="214.55" width="26.82" height="26.82" fill="#7903f0"/><polygon points="482.73,214.55 482.73,241.37 455.91,241.37" fill="#08030a"/><rect x="429.09" y="241.36" width="26.82" height="26.82" fill="#08030a"/><path d="M 429.09 241.36 A 26.82 26.82 0 0 0 455.90999999999997 268.18 L 455.90999999999997 241.36" fill="#08030a"/><rect x="455.91" y="241.36" width="26.82" height="26.82" fill="#08030a"/><polygon points="482.73,241.36 482.73,268.18 455.91,268.18" fill="#7903f0"/><rect x="482.7272727272727" y="214.54545454545453" width="53.63636363636363" height="53.63636363636363" fill="#ffffff"/><rect x="482.73" y="214.55" width="26.82" height="26.82" fill="#08030a"/><path d="M 482.73 214.55 A 26.82 26.82 0 0 0 509.55 241.37 L 509.55 214.55" fill="#08030a"/><rect x="509.55" y="214.55" width="26.82" height="26.82" fill="#7903f0"/><rect x="509.55" y="214.55" width="26.82" height="26.82" fill="#7903f0"/><rect x="482.73" y="241.36" width="26.82" height="26.82" fill="#08030a"/><polygon points="482.73,241.36 509.55,241.36 509.55,268.18" fill="#7903f0"/><rect x="509.55" y="241.36" width="26.82" height="26.82" fill="#7903f0"/><path d="M 509.55 241.36 A 26.82 26.82 0 0 1 536.37 268.18 L 509.55 268.18" fill="#7903f0"/><rect x="536.36" y="214.55" width="53.64" height="53.64" fill="#7903f0"/><path d="M 536.36 268.19 A 53.64 53.64 0 0 0 590 214.55 L 536.36 214.55" fill="#08030a"/><rect x="0" y="268.18" width="53.64" height="53.64" fill="#08030a"/><rect x="0" y="268.18" width="53.64" height="53.64" fill="#08030a"/><rect x="53.63636363636363" y="268.1818181818182" width="53.63636363636363" height="53.63636363636363" fill="#ffffff"/><rect x="53.64" y="268.18" width="26.82" height="26.82" fill="#7903f0"/><rect x="53.64" y="268.18" width="26.82" height="26.82" fill="#08030a"/><rect x="80.45" y="268.18" width="26.82" height="26.82" fill="#08030a"/><path d="M 80.45 295 A 26.82 26.82 0 0 1  107.27000000000001 268.18 L 107.27000000000001 295" fill="#7903f0"/><rect x="53.64" y="295" width="26.82" height="26.82" fill="#7903f0"/><path d="M 53.64 321.82 A 26.82 26.82 0 0 1  80.46000000000001 295 L 80.46000000000001 321.82" fill="#08030a"/><rect x="80.45" y="295" width="26.82" height="26.82" fill="#08030a"/><g transform="translate(80.45,295) scale(1.341) rotate(0)"><path d="M5 0H10L5 5L0 10V5L5 0Z" fill="#7903f0"/><path d="M20 15V20H15L20 15Z" fill="#7903f0"/><path d="M20 5V10L15 15L10 20H5L20 5Z" fill="#7903f0"/><path d="M15 0H20L5 15.0002L0 20.0002V15.0002L15 0Z" fill="#7903f0"/></g><rect x="107.27272727272727" y="268.1818181818182" width="53.63636363636363" height="53.63636363636363" fill="#ffffff"/><rect x="107.27" y="268.18" width="26.82" height="26.82" fill="#7903f0"/><path d="M 107.27 268.18 A 26.82 26.82 0 0 1 134.09 295 L 107.27 295" fill="#08030a"/><rect x="134.09" y="268.18" width="26.82" height="26.82" fill="#7903f0"/><path d="M 134.09 295 A 26.82 26.82 0 0 1  160.91 268.18 L 160.91 295" fill="#7903f0"/><rect x="107.27" y="295" width="26.82" height="26.82" fill="#08030a"/><polygon points="107.27,295 134.09,321.82 107.27,321.82" fill="#7903f0"/><rect x="134.09" y="295" width="26.82" height="26.82" fill="#7903f0"/><rect x="134.09" y="295" width="26.82" height="26.82" fill="#08030a"/><rect x="160.9090909090909" y="268.1818181818182" width="53.63636363636363" height="53.63636363636363" fill="#ffffff"/><rect x="160.91" y="268.18" width="26.82" height="26.82" fill="#08030a"/><rect x="160.91" y="268.18" width="26.82" height="26.82" fill="#7903f0"/><rect x="187.73" y="268.18" width="26.82" height="26.82" fill="#08030a"/><path d="M 187.73 295 A 26.82 26.82 0 0 0 214.54999999999998 268.18 L 187.73 268.18" fill="#7903f0"/><rect x="160.91" y="295" width="26.82" height="26.82" fill="#7903f0"/><path d="M 160.91 321.82 A 26.82 26.82 0 0 1  187.73 295 L 187.73 321.82" fill="#7903f0"/><rect x="187.73" y="295" width="26.82" height="26.82" fill="#08030a"/><g transform="translate(187.73,295) scale(1.341) rotate(0)"><path d="M5 0H10L5 5L0 10V5L5 0Z" fill="#08030a"/><path d="M20 15V20H15L20 15Z" fill="#08030a"/><path d="M20 5V10L15 15L10 20H5L20 5Z" fill="#08030a"/><path d="M15 0H20L5 15.0002L0 20.0002V15.0002L15 0Z" fill="#08030a"/></g><rect x="214.54545454545453" y="268.1818181818182" width="53.63636363636363" height="53.63636363636363" fill="#ffffff"/><rect x="214.55" y="268.18" width="26.82" height="26.82" fill="#7903f0"/><rect x="214.55" y="268.18" width="26.82" height="26.82" fill="#08030a"/><rect x="241.36" y="268.18" width="26.82" height="26.82" fill="#7903f0"/><rect x="241.36" y="268.18" width="26.82" height="26.82" fill="#7903f0"/><rect x="214.55" y="295" width="26.82" height="26.82" fill="#7903f0"/><g transform="translate(214.55,295) scale(1.341) rotate(0)"><path d="M5 0H10L5 5L0 10V5L5 0Z" fill="#7903f0"/><path d="M20 15V20H15L20 15Z" fill="#7903f0"/><path d="M20 5V10L15 15L10 20H5L20 5Z" fill="#7903f0"/><path d="M15 0H20L5 15.0002L0 20.0002V15.0002L15 0Z" fill="#7903f0"/></g><rect x="241.36" y="295" width="26.82" height="26.82" fill="#08030a"/><rect x="241.36" y="295" width="26.82" height="26.82" fill="#7903f0"/><rect x="268.18" y="268.18" width="53.64" height="53.64" fill="#08030a"/><rect x="268.18" y="268.18" width="53.64" height="53.64" fill="#08030a"/><rect x="321.82" y="268.18" width="53.64" height="53.64" fill="#08030a"/><g transform="translate(321.82,268.18) scale(2.682) rotate(0)"><path d="M5 0H10L5 5L0 10V5L5 0Z" fill="#08030a"/><path d="M20 15V20H15L20 15Z" fill="#08030a"/><path d="M20 5V10L15 15L10 20H5L20 5Z" fill="#08030a"/><path d="M15 0H20L5 15.0002L0 20.0002V15.0002L15 0Z" fill="#08030a"/></g><rect x="375.45" y="268.18" width="53.64" height="53.64" fill="#08030a"/><path d="M 375.45 268.18 A 53.64 53.64 0 0 1  429.09 321.82 L 375.45 268.18 A 53.64 53.64 0 0 0 429.09 321.82" fill="#08030a"/><rect x="429.09" y="268.18" width="53.64" height="53.64" fill="#7903f0"/><path d="M 429.09 321.82 A 53.64 53.64 0 0 1  482.72999999999996 268.18 L 429.09 321.82 A 53.64 53.64 0 0 0 482.72999999999996 268.18" fill="#08030a"/><rect x="482.7272727272727" y="268.1818181818182" width="53.63636363636363" height="53.63636363636363" fill="#ffffff"/><rect x="482.73" y="268.18" width="26.82" height="26.82" fill="#08030a"/><rect x="482.73" y="268.18" width="26.82" height="26.82" fill="#7903f0"/><rect x="509.55" y="268.18" width="26.82" height="26.82" fill="#7903f0"/><rect x="509.55" y="268.18" width="26.82" height="26.82" fill="#7903f0"/><rect x="482.73" y="295" width="26.82" height="26.82" fill="#7903f0"/><g transform="translate(482.73,295) scale(1.341) rotate(0)"><path d="M5 0H10L5 5L0 10V5L5 0Z" fill="#7903f0"/><path d="M20 15V20H15L20 15Z" fill="#7903f0"/><path d="M20 5V10L15 15L10 20H5L20 5Z" fill="#7903f0"/><path d="M15 0H20L5 15.0002L0 20.0002V15.0002L15 0Z" fill="#7903f0"/></g><rect x="509.55" y="295" width="26.82" height="26.82" fill="#08030a"/><polygon points="509.55,295 536.37,295 509.55,321.82" fill="#7903f0"/><rect x="536.3636363636364" y="268.1818181818182" width="53.63636363636363" height="53.63636363636363" fill="#ffffff"/><rect x="536.36" y="268.18" width="26.82" height="26.82" fill="#08030a"/><g transform="translate(536.36,268.18) scale(1.341) rotate(0)"><path d="M5 0H10L5 5L0 10V5L5 0Z" fill="#7903f0"/><path d="M20 15V20H15L20 15Z" fill="#7903f0"/><path d="M20 5V10L15 15L10 20H5L20 5Z" fill="#7903f0"/><path d="M15 0H20L5 15.0002L0 20.0002V15.0002L15 0Z" fill="#7903f0"/></g><rect x="563.18" y="268.18" width="26.82" height="26.82" fill="#7903f0"/><rect x="563.18" y="268.18" width="26.82" height="26.82" fill="#08030a"/><rect x="536.36" y="295" width="26.82" height="26.82" fill="#7903f0"/><polygon points="536.36,295 563.1800000000001,321.82 536.36,321.82" fill="#08030a"/><rect x="563.18" y="295" width="26.82" height="26.82" fill="#7903f0"/><rect x="563.18" y="295" width="26.82" height="26.82" fill="#08030a"/><rect x="0" y="321.82" width="53.64" height="53.64" fill="#08030a"/><rect x="0" y="321.82" width="53.64" height="53.64" fill="#7903f0"/><rect x="53.64" y="321.82" width="53.64" height="53.64" fill="#08030a"/><rect x="53.64" y="321.82" width="53.64" height="53.64" fill="#08030a"/><rect x="107.27272727272727" y="321.8181818181818" width="53.63636363636363" height="53.63636363636363" fill="#ffffff"/><rect x="107.27" y="321.82" width="26.82" height="26.82" fill="#08030a"/><path d="M 107.27 321.82 A 26.82 26.82 0 0 1  134.09 348.64 L 107.27 321.82 A 26.82 26.82 0 0 0 134.09 348.64" fill="#7903f0"/><rect x="134.09" y="321.82" width="26.82" height="26.82" fill="#08030a"/><polygon points="134.09,321.82 160.91,321.82 160.91,348.64" fill="#08030a"/><rect x="107.27" y="348.64" width="26.82" height="26.82" fill="#7903f0"/><rect x="107.27" y="348.64" width="26.82" height="26.82" fill="#08030a"/><rect x="134.09" y="348.64" width="26.82" height="26.82" fill="#7903f0"/><rect x="134.09" y="348.64" width="26.82" height="26.82" fill="#08030a"/><rect x="160.9090909090909" y="321.8181818181818" width="53.63636363636363" height="53.63636363636363" fill="#ffffff"/><rect x="160.91" y="321.82" width="26.82" height="26.82" fill="#7903f0"/><g transform="translate(160.91,321.82) scale(1.341) rotate(0)"><path d="M5 0H10L5 5L0 10V5L5 0Z" fill="#7903f0"/><path d="M20 15V20H15L20 15Z" fill="#7903f0"/><path d="M20 5V10L15 15L10 20H5L20 5Z" fill="#7903f0"/><path d="M15 0H20L5 15.0002L0 20.0002V15.0002L15 0Z" fill="#7903f0"/></g><rect x="187.73" y="321.82" width="26.82" height="26.82" fill="#08030a"/><path d="M 187.73 321.82 A 26.82 26.82 0 0 1 214.54999999999998 348.64 L 187.73 348.64" fill="#08030a"/><rect x="160.91" y="348.64" width="26.82" height="26.82" fill="#7903f0"/><g transform="translate(160.91,348.64) scale(1.341) rotate(0)"><path d="M5 0H10L5 5L0 10V5L5 0Z" fill="#7903f0"/><path d="M20 15V20H15L20 15Z" fill="#7903f0"/><path d="M20 5V10L15 15L10 20H5L20 5Z" fill="#7903f0"/><path d="M15 0H20L5 15.0002L0 20.0002V15.0002L15 0Z" fill="#7903f0"/></g><rect x="187.73" y="348.64" width="26.82" height="26.82" fill="#08030a"/><rect x="187.73" y="348.64" width="26.82" height="26.82" fill="#08030a"/><rect x="214.55" y="321.82" width="53.64" height="53.64" fill="#7903f0"/><path d="M 214.55 375.46 A 53.64 53.64 0 0 0 268.19 321.82 L 214.55 321.82" fill="#08030a"/><rect x="268.1818181818182" y="321.8181818181818" width="53.63636363636363" height="53.63636363636363" fill="#ffffff"/><rect x="268.18" y="321.82" width="26.82" height="26.82" fill="#7903f0"/><rect x="268.18" y="321.82" width="26.82" height="26.82" fill="#08030a"/><rect x="295" y="321.82" width="26.82" height="26.82" fill="#7903f0"/><polygon points="295,321.82 321.82,348.64 295,348.64" fill="#7903f0"/><rect x="268.18" y="348.64" width="26.82" height="26.82" fill="#08030a"/><rect x="268.18" y="348.64" width="26.82" height="26.82" fill="#7903f0"/><rect x="295" y="348.64" width="26.82" height="26.82" fill="#08030a"/><polygon points="295,348.64 321.82,348.64 321.82,375.46" fill="#7903f0"/><rect x="321.8181818181818" y="321.8181818181818" width="53.63636363636363" height="53.63636363636363" fill="#ffffff"/><rect x="321.82" y="321.82" width="26.82" height="26.82" fill="#08030a"/><polygon points="321.82,321.82 348.64,321.82 321.82,348.64" fill="#7903f0"/><rect x="348.64" y="321.82" width="26.82" height="26.82" fill="#7903f0"/><path d="M 348.64 348.64 A 26.82 26.82 0 0 0 375.46 321.82 L 348.64 321.82" fill="#08030a"/><rect x="321.82" y="348.64" width="26.82" height="26.82" fill="#08030a"/><polygon points="321.82,348.64 348.64,348.64 321.82,375.46" fill="#7903f0"/><rect x="348.64" y="348.64" width="26.82" height="26.82" fill="#7903f0"/><path d="M 348.64 375.46 A 26.82 26.82 0 0 1  375.46 348.64 L 348.64 375.46 A 26.82 26.82 0 0 0 375.46 348.64" fill="#08030a"/><rect x="375.45454545454544" y="321.8181818181818" width="53.63636363636363" height="53.63636363636363" fill="#ffffff"/><rect x="375.45" y="321.82" width="26.82" height="26.82" fill="#08030a"/><g transform="translate(375.45,321.82) scale(1.341) rotate(0)"><path d="M5 0H10L5 5L0 10V5L5 0Z" fill="#08030a"/><path d="M20 15V20H15L20 15Z" fill="#08030a"/><path d="M20 5V10L15 15L10 20H5L20 5Z" fill="#08030a"/><path d="M15 0H20L5 15.0002L0 20.0002V15.0002L15 0Z" fill="#08030a"/></g><rect x="402.27" y="321.82" width="26.82" height="26.82" fill="#08030a"/><rect x="402.27" y="321.82" width="26.82" height="26.82" fill="#08030a"/><rect x="375.45" y="348.64" width="26.82" height="26.82" fill="#08030a"/><g transform="translate(375.45,348.64) scale(1.341) rotate(0)"><path d="M5 0H10L5 5L0 10V5L5 0Z" fill="#7903f0"/><path d="M20 15V20H15L20 15Z" fill="#7903f0"/><path d="M20 5V10L15 15L10 20H5L20 5Z" fill="#7903f0"/><path d="M15 0H20L5 15.0002L0 20.0002V15.0002L15 0Z" fill="#7903f0"/></g><rect x="402.27" y="348.64" width="26.82" height="26.82" fill="#7903f0"/><polygon points="402.27,348.64 429.09,375.46 402.27,375.46" fill="#08030a"/><rect x="429.09" y="321.82" width="53.64" height="53.64" fill="#7903f0"/><path d="M 429.09 321.82 A 53.64 53.64 0 0 0 482.72999999999996 375.46 L 482.72999999999996 321.82" fill="#08030a"/><rect x="482.73" y="321.82" width="53.64" height="53.64" fill="#7903f0"/><path d="M 482.73 321.82 A 53.64 53.64 0 0 1  536.37 375.46 L 482.73 321.82 A 53.64 53.64 0 0 0 536.37 375.46" fill="#7903f0"/><rect x="536.36" y="321.82" width="53.64" height="53.64" fill="#08030a"/><g transform="translate(536.36,321.82) scale(2.682) rotate(0)"><path d="M5 0H10L5 5L0 10V5L5 0Z" fill="#7903f0"/><path d="M20 15V20H15L20 15Z" fill="#7903f0"/><path d="M20 5V10L15 15L10 20H5L20 5Z" fill="#7903f0"/><path d="M15 0H20L5 15.0002L0 20.0002V15.0002L15 0Z" fill="#7903f0"/></g></g></svg>